<?xml version="1.0" encoding="UTF-8"?>
<svg id="Capa_2" data-name="Capa 2" xmlns="http://www.w3.org/2000/svg" viewBox="0 0 405.66 92.53">
  <defs>
    <style>
      .cls-1, .cls-2, .cls-3 {
        fill: none;
      }

      .cls-4 {
        fill: #f8c650;
      }

      .cls-5 {
        fill: #00aea6;
      }

      .cls-6 {
        fill: #ea4e64;
      }

      .cls-7 {
        fill: #f1882d;
      }

      .cls-8 {
        fill: #009ad5;
      }

      .cls-9 {
        fill: #9e2349;
      }

      .cls-10 {
        fill: #904290;
      }

      .cls-11 {
        fill: #ab0541;
      }

      .cls-12 {
        fill: #bc9559;
      }

      .cls-13 {
        fill: #5b79b5;
      }

      .cls-14 {
        fill: #5cb139;
      }

      .cls-2 {
        stroke: #e63133;
        stroke-width: .24px;
      }

      .cls-2, .cls-3 {
        stroke-miterlimit: 10;
      }

      .cls-3 {
        stroke: #9f2249;
        stroke-width: 1.95px;
      }
    </style>
  </defs>
  <g id="Capa_1-2" data-name="Capa 1">
    <line class="cls-3" x1="94.82" y1="11" x2="94.82" y2="81.14"/>
    <g>
      <g>
        <path class="cls-9" d="m156.19,26.55c-.43-.36-1.24-.77-1.99-1.05l.32-1.5c1.78,0,3.94-.04,5.57-.11,1.39,2.59,5.36,7.41,8.2,10.84-.04-4.65-.26-7.65-.54-8.18-.24-.34-1.58-.75-2.53-1.05l.32-1.5h7.56l.32,1.5-2.14.77c-.28,1.37-.43,6.96-.43,14.65l-3.32.32-2.21-3.21c-1.76-2.4-4.05-5.25-6-7.56.09,4.54.26,7.62.47,8.12.32.39,1.69.73,2.85,1.05l-.32,1.5h-7.82l-.32-1.5,2.14-.75c.11-.64.21-2.83.21-6.45.02-3.34-.04-5.48-.34-5.89"/>
        <g>
          <path class="cls-9" d="m112.72,39.21l2.15-.75c.11-.73.17-2.1.17-4.13v-4.42c0-2.27-.07-3.5-.22-3.7-.18-.24-.88-.56-2.1-.97l.31-1.47h8.24l.31,1.47-2.15.75c-.11.74-.17,2.12-.17,4.13v1.14l7.2.1v-1.45c0-2.27-.07-3.5-.22-3.7-.18-.24-.88-.56-2.1-.97l.31-1.47h8.24l.31,1.47-2.15.75c-.11.74-.17,2.12-.17,4.13v4.42c0,2.27.07,3.5.22,3.7.18.24.88.56,2.1.97l-.31,1.47h-8.24l-.31-1.47,2.15-.75c.11-.74.17-2.12.17-4.13v-.84l-7.2.14v.92c0,2.27.07,3.5.22,3.7.18.24.88.56,2.1.97l-.31,1.47h-8.24l-.31-1.48Z"/>
          <path class="cls-9" d="m143.98,41.05c-2.56,0-4.63-.75-6.2-2.25s-2.36-3.52-2.36-6.06c0-2.77.85-5.02,2.55-6.74,1.7-1.72,3.92-2.59,6.66-2.59,2.5,0,4.51.76,6.04,2.28,1.53,1.52,2.3,3.57,2.3,6.15,0,2.71-.84,4.92-2.51,6.63-1.68,1.72-3.84,2.58-6.48,2.58Zm.29-2.66c1.34,0,2.33-.29,2.99-.87.31-.44.59-1.1.86-2.01.27-.9.4-1.92.4-3.07,0-2.13-.34-3.72-1.01-4.78-.68-1.06-1.81-1.59-3.41-1.59-1.22,0-2.21.29-2.97.87-.84,1.22-1.26,3.04-1.26,5.46,0,1.9.37,3.37,1.11,4.42.74,1.05,1.84,1.57,3.29,1.57Z"/>
          <path class="cls-9" d="m175.52,39.21l2.15-.75c.11-.73.17-2.1.17-4.13v-4.42c0-2.32-.08-3.56-.24-3.72-.27-.27-.97-.59-2.08-.94l.31-1.47h6.76c2.99,0,5.5-.07,7.51-.22.32.4.58.79.77,1.16-.18,1.13-.46,2.52-.84,4.18-1,.05-1.84,0-2.54-.14l-.65-2.92c-.6-.06-1.44-.1-2.54-.1-.55,0-1.24.02-2.08.05-.11,1.21-.17,2.65-.17,4.32v1.26l5.12-.29.48.63-.36,2-5.24-.22v1.06c0,2.32.09,3.57.27,3.74.31.29,1.13.44,2.49.44.82,0,1.61-.07,2.37-.22l.85-2.95c.93-.06,1.84-.02,2.73.12.08,1.63.08,3.29,0,5h-14.93l-.31-1.47Z"/>
          <path class="cls-9" d="m200.99,23.41c2.17,0,4.01.44,5.51,1.3l.41.75c-.27,1.55-.56,2.75-.85,3.62-.98.05-1.86,0-2.63-.12-.13-1.06-.3-1.9-.51-2.51-.58-.37-1.35-.56-2.32-.56-.87,0-1.54.15-2.01.46-.31.52-.46,1.01-.46,1.47,0,.5.16.94.5,1.32.33.38.76.69,1.29.94.53.25,1.12.49,1.75.73.64.23,1.27.5,1.91.8.64.3,1.22.63,1.75,1s.96.86,1.29,1.46c.33.6.5,1.3.5,2.09,0,1.45-.64,2.63-1.92,3.53-1.28.9-2.95,1.35-5.01,1.35s-4.23-.47-6.4-1.42v-.12c-.03-1.37,0-2.64.1-3.82.89-.16,1.83-.2,2.83-.12.24,1.06.47,1.91.7,2.54.64.39,1.59.58,2.85.58.82,0,1.48-.11,1.98-.34.31-.4.46-.93.46-1.57,0-.45-.16-.84-.48-1.17s-.75-.61-1.27-.83c-.52-.23-1.1-.45-1.73-.66-.63-.22-1.26-.47-1.88-.76-.63-.29-1.2-.62-1.73-.99-.52-.37-.95-.87-1.27-1.49-.32-.62-.48-1.33-.48-2.14,0-1.55.68-2.82,2.04-3.82,1.35-1,3.05-1.5,5.08-1.5Z"/>
          <path class="cls-9" d="m212.92,39.21l2.15-.75c.11-.73.17-2.1.17-4.13v-8.6h-.24c-.8,0-1.55.04-2.25.12l-.85,3.24c-1.1.08-2.03.04-2.8-.12-.08-1.67-.08-3.41,0-5.19h8.74c3.04,0,5.44-.06,7.17-.17.34.43.59.81.75,1.11-.06,1.34-.2,2.76-.41,4.28-.29.05-.72.07-1.3.06s-1.01-.04-1.3-.08l-.77-3.12c-.55-.08-1.3-.12-2.27-.12h-.24v8.82c0,2.27.07,3.5.22,3.7.18.24.88.56,2.1.97l-.32,1.46h-8.24l-.31-1.48Z"/>
          <path class="cls-9" d="m227.7,39.21l2.15-.75c.11-.73.17-2.1.17-4.13v-4.42c0-2.27-.07-3.5-.22-3.7-.18-.24-.88-.56-2.1-.97l.31-1.47h8.24l.31,1.47-2.15.75c-.11.74-.17,2.12-.17,4.13v4.42c0,2.27.07,3.5.22,3.7.18.24.88.56,2.1.97l-.31,1.47h-8.24l-.31-1.47Z"/>
          <path class="cls-9" d="m239.23,39.21l2.15-.75c.11-.73.17-2.1.17-4.13v-4.42c0-2.27-.07-3.5-.22-3.7-.18-.24-.88-.56-2.1-.97l.31-1.47h3.72c.27,0,1.04-.02,2.29-.07,1.26-.05,2.11-.07,2.56-.07,1.69,0,3.16.22,4.4.66,1.24.44,2.21,1.06,2.91,1.86.7.8,1.22,1.69,1.55,2.67s.5,2.07.5,3.26c0,2.8-.83,4.97-2.49,6.51s-3.7,2.31-6.14,2.31c-.52,0-1.41-.04-2.69-.11s-2.19-.11-2.72-.11h-3.89l-.31-1.47Zm6.54-4.66c0,2.27.07,3.5.22,3.7.19.24.72.41,1.57.51.85.1,1.72,0,2.61-.29,1.9-1.05,2.85-3.17,2.85-6.38,0-1.24-.19-2.36-.57-3.35-.38-.99-.83-1.7-1.36-2.11-.79-.5-1.86-.75-3.21-.75-.76,0-1.4.05-1.93.15-.11.74-.17,2.11-.17,4.11v4.41h0Z"/>
          <path class="cls-9" d="m266.45,39.21l-.34,1.47h-7.13l-.31-1.47,1.86-.75c1.29-3.11,2.83-7.2,4.64-12.27l.68-2.42c2.03-.16,3.82-.24,5.36-.24.11.43.4,1.32.87,2.66,1.66,4.7,3.17,8.8,4.54,12.3l1.88.72-.31,1.47h-8.21l-.31-1.47,2.29-.72c-.29-.85-.62-1.84-.99-2.97l-6.04.15c-.03.11-.31,1.05-.82,2.83l2.34.71Zm-.82-5.92l4.59.1c-.85-2.5-1.67-4.82-2.44-6.96-.63,1.86-1.35,4.14-2.15,6.86Z"/>
          <path class="cls-9" d="m279.96,39.21l2.15-.75c.11-.73.17-2.1.17-4.13v-4.42c0-2.27-.07-3.5-.22-3.7-.18-.24-.88-.56-2.1-.97l.31-1.47h3.72c.27,0,1.04-.02,2.29-.07s2.11-.07,2.56-.07c1.69,0,3.16.22,4.4.66,1.24.44,2.21,1.06,2.91,1.86.7.8,1.22,1.69,1.55,2.67s.5,2.07.5,3.26c0,2.8-.83,4.97-2.49,6.51s-3.7,2.31-6.14,2.31c-.52,0-1.41-.04-2.69-.11s-2.19-.11-2.72-.11h-3.89l-.31-1.47Zm6.54-4.66c0,2.27.07,3.5.22,3.7.19.24.72.41,1.57.51.85.1,1.72,0,2.61-.29,1.9-1.05,2.85-3.17,2.85-6.38,0-1.24-.19-2.36-.57-3.35-.38-.99-.83-1.7-1.36-2.11-.79-.5-1.86-.75-3.21-.75-.76,0-1.4.05-1.93.15-.11.74-.17,2.11-.17,4.11v4.41h0Z"/>
        </g>
      </g>
      <g>
        <path class="cls-12" d="m114.04,54.23c-.6-.18-1.07-.42-1.42-.72l.53-1.2c.34.27.76.49,1.25.66s.99.25,1.49.25c.62,0,1.08-.1,1.38-.3.3-.2.46-.46.46-.78,0-.24-.08-.43-.25-.59-.17-.15-.38-.27-.65-.36-.26-.09-.62-.19-1.07-.3-.63-.15-1.14-.3-1.53-.45s-.73-.38-1.01-.7-.42-.75-.42-1.3c0-.46.12-.87.37-1.25.25-.37.62-.67,1.13-.89.5-.22,1.11-.33,1.84-.33.51,0,1,.06,1.49.19.49.13.91.31,1.27.55l-.49,1.2c-.36-.21-.74-.38-1.14-.49-.39-.11-.78-.17-1.15-.17-.61,0-1.06.1-1.36.31-.3.21-.44.48-.44.82,0,.24.08.43.25.58s.38.27.65.36c.26.09.62.19,1.07.3.61.14,1.12.29,1.52.44.39.15.73.39,1.01.7.28.32.42.74.42,1.28,0,.46-.12.87-.37,1.24-.25.37-.63.67-1.13.89-.5.22-1.12.33-1.85.33-.64,0-1.25-.09-1.85-.27Z"/>
        <path class="cls-12" d="m128.41,53.09v1.29h-6.22v-8.29h6.05v1.29h-4.51v2.16h4v1.27h-4v2.29h4.68Z"/>
        <path class="cls-12" d="m133.09,53.95c-.67-.37-1.2-.87-1.59-1.52-.38-.65-.58-1.38-.58-2.19s.19-1.54.58-2.19c.39-.65.92-1.15,1.59-1.52.68-.37,1.43-.55,2.27-.55.68,0,1.3.12,1.86.36.56.24,1.03.58,1.42,1.03l-.99.94c-.6-.65-1.34-.97-2.22-.97-.57,0-1.08.12-1.53.37s-.8.59-1.05,1.04c-.25.44-.38.94-.38,1.5s.13,1.06.38,1.5.6.79,1.05,1.04.96.37,1.53.37c.88,0,1.62-.33,2.22-.98l.99.95c-.39.45-.86.79-1.43,1.03-.56.24-1.19.36-1.87.36-.82-.02-1.58-.2-2.25-.57Z"/>
        <path class="cls-12" d="m146.97,54.39l-1.69-2.43c-.07,0-.18,0-.32,0h-1.87v2.42h-1.54v-8.29h3.41c.72,0,1.34.12,1.88.35.53.24.94.58,1.23,1.02.28.44.43.97.43,1.58s-.15,1.16-.46,1.61c-.3.45-.74.79-1.31,1.01l1.91,2.72h-1.67Zm-.55-6.57c-.35-.28-.86-.43-1.53-.43h-1.8v3.3h1.8c.67,0,1.18-.14,1.53-.43.35-.29.52-.7.52-1.23s-.18-.92-.52-1.21Z"/>
        <path class="cls-12" d="m157.85,53.09v1.29h-6.22v-8.29h6.05v1.29h-4.51v2.16h4v1.27h-4v2.29h4.68Z"/>
        <path class="cls-12" d="m162.67,47.4h-2.75v-1.3h7.04v1.3h-2.75v6.99h-1.54v-6.99Z"/>
        <path class="cls-12" d="m174.5,52.47h-4.15l-.82,1.92h-1.59l3.73-8.29h1.52l3.74,8.29h-1.61l-.82-1.92Zm-.51-1.21l-1.56-3.62-1.55,3.62h3.11Z"/>
        <path class="cls-12" d="m184.84,54.39l-1.69-2.43c-.07,0-.18,0-.32,0h-1.87v2.42h-1.54v-8.29h3.41c.72,0,1.34.12,1.88.35.53.24.94.58,1.23,1.02.28.44.43.97.43,1.58s-.15,1.16-.46,1.61c-.3.45-.74.79-1.31,1.01l1.91,2.72h-1.67Zm-.56-6.57c-.35-.28-.86-.43-1.53-.43h-1.8v3.3h1.8c.67,0,1.18-.14,1.53-.43.35-.29.52-.7.52-1.23s-.17-.92-.52-1.21Z"/>
        <path class="cls-12" d="m190.87,43.8h1.74l-2.06,1.62h-1.28l1.6-1.62Zm-1.38,2.3h1.54v8.29h-1.54v-8.29Z"/>
        <path class="cls-12" d="m200.07,52.47h-4.15l-.82,1.92h-1.59l3.73-8.29h1.52l3.74,8.29h-1.61l-.82-1.92Zm-.51-1.21l-1.56-3.62-1.55,3.62h3.11Z"/>
        <path class="cls-12" d="m209.68,46.1h3.62c.88,0,1.67.17,2.36.52.69.34,1.22.83,1.6,1.46.38.63.57,1.35.57,2.17s-.19,1.55-.57,2.17-.91,1.11-1.6,1.46c-.69.34-1.47.52-2.36.52h-3.62v-8.3Zm3.55,6.98c.61,0,1.14-.12,1.61-.35.46-.23.82-.56,1.07-1,.25-.43.37-.93.37-1.5s-.12-1.07-.37-1.5-.6-.76-1.07-1c-.46-.23-1-.35-1.61-.35h-2.01v5.68h2.01v.02Z"/>
        <path class="cls-12" d="m227.1,53.09v1.29h-6.22v-8.29h6.05v1.29h-4.51v2.16h4v1.27h-4v2.29h4.68Z"/>
        <path class="cls-12" d="m242.85,46.1v8.29h-1.54v-3.55h-4.29v3.55h-1.54v-8.29h1.54v3.42h4.29v-3.42s1.54,0,1.54,0Z"/>
        <path class="cls-12" d="m248.09,53.95c-.68-.37-1.21-.88-1.6-1.53-.39-.65-.58-1.38-.58-2.19s.19-1.53.58-2.19c.39-.65.92-1.16,1.6-1.53s1.44-.55,2.29-.55,1.61.18,2.29.55,1.21.87,1.6,1.52c.39.65.58,1.38.58,2.19s-.19,1.54-.58,2.19c-.39.65-.92,1.15-1.6,1.52s-1.44.55-2.29.55c-.85.02-1.61-.16-2.29-.53Zm3.78-1.17c.44-.25.79-.6,1.04-1.04.25-.45.38-.95.38-1.5s-.13-1.05-.38-1.5-.6-.79-1.04-1.04-.94-.37-1.49-.37-1.05.12-1.49.37-.79.6-1.04,1.04c-.25.45-.38.95-.38,1.5s.13,1.05.38,1.5.6.79,1.04,1.04.94.37,1.49.37,1.04-.12,1.49-.37Z"/>
        <path class="cls-12" d="m265.26,46.1v8.29h-1.27l-4.57-5.61v5.61h-1.53v-8.29h1.27l4.57,5.61v-5.61s1.53,0,1.53,0Z"/>
        <path class="cls-12" d="m275.13,53.09v1.29h-6.22v-8.29h6.05v1.29h-4.51v2.16h4v1.27h-4v2.29h4.68Z"/>
        <path class="cls-12" d="m278.98,54.23c-.6-.18-1.07-.42-1.42-.72l.53-1.2c.34.27.76.49,1.25.66s.99.25,1.49.25c.62,0,1.08-.1,1.38-.3s.46-.46.46-.78c0-.24-.08-.43-.25-.59-.17-.15-.38-.27-.65-.36-.26-.09-.62-.19-1.07-.3-.63-.15-1.14-.3-1.53-.45s-.73-.38-1.01-.7-.42-.75-.42-1.3c0-.46.12-.87.37-1.25.25-.37.62-.67,1.13-.89.5-.22,1.11-.33,1.84-.33.51,0,1,.06,1.49.19.49.13.91.31,1.27.55l-.49,1.2c-.36-.21-.74-.38-1.14-.49-.39-.11-.78-.17-1.15-.17-.61,0-1.06.1-1.36.31-.3.21-.44.48-.44.82,0,.24.08.43.25.58s.38.27.65.36c.26.09.62.19,1.07.3.61.14,1.12.29,1.52.44.39.15.73.39,1.01.7.28.32.42.74.42,1.28,0,.46-.12.87-.37,1.24-.25.37-.63.67-1.13.89-.5.22-1.12.33-1.85.33-.63,0-1.25-.09-1.85-.27Z"/>
        <path class="cls-12" d="m288.7,47.4h-2.75v-1.3h7.04v1.3h-2.75v6.99h-1.54v-6.99Z"/>
        <path class="cls-12" d="m295.57,46.1h1.54v8.29h-1.54v-8.29Z"/>
        <path class="cls-12" d="m300.77,46.1h3.62c.88,0,1.67.17,2.36.52.69.34,1.22.83,1.6,1.46.38.63.57,1.35.57,2.17s-.19,1.55-.57,2.17-.91,1.11-1.6,1.46c-.69.34-1.47.52-2.36.52h-3.62v-8.3Zm3.55,6.98c.61,0,1.14-.12,1.61-.35.46-.23.82-.56,1.07-1,.25-.43.37-.93.37-1.5s-.12-1.07-.37-1.5-.6-.76-1.07-1c-.46-.23-1-.35-1.61-.35h-2.01v5.68h2.01v.02Z"/>
        <path class="cls-12" d="m317.23,52.47h-4.15l-.82,1.92h-1.59l3.73-8.29h1.52l3.74,8.29h-1.61l-.82-1.92Zm-.51-1.21l-1.56-3.62-1.55,3.62h3.11Z"/>
        <path class="cls-12" d="m322.15,46.1h3.62c.88,0,1.67.17,2.36.52.69.34,1.22.83,1.6,1.46.38.63.57,1.35.57,2.17s-.19,1.55-.57,2.17-.91,1.11-1.6,1.46c-.69.34-1.47.52-2.36.52h-3.62v-8.3Zm3.55,6.98c.61,0,1.14-.12,1.61-.35.46-.23.82-.56,1.07-1,.25-.43.37-.93.37-1.5s-.12-1.07-.37-1.5-.6-.76-1.07-1c-.46-.23-1-.35-1.61-.35h-2.01v5.68h2.01v.02Z"/>
        <path class="cls-12" d="m115.01,61.61h-2.75v-1.3h7.04v1.3h-2.75v6.99h-1.54v-6.99Z"/>
        <path class="cls-12" d="m127.3,68.6l-1.69-2.43c-.07.01-.18.01-.32.01h-1.87v2.42h-1.54v-8.29h3.41c.72,0,1.34.12,1.88.35.53.24.94.58,1.23,1.02.28.44.43.97.43,1.58s-.15,1.16-.46,1.61c-.3.45-.74.79-1.31,1.01l1.91,2.72h-1.67Zm-.56-6.56c-.35-.28-.86-.43-1.53-.43h-1.8v3.3h1.8c.67,0,1.18-.14,1.53-.43s.52-.7.52-1.23-.17-.93-.52-1.21Z"/>
        <path class="cls-12" d="m137.33,66.68h-4.15l-.82,1.92h-1.59l3.73-8.29h1.52l3.74,8.29h-1.61l-.82-1.92Zm-.51-1.21l-1.56-3.62-1.55,3.62h3.11Z"/>
        <path class="cls-12" d="m149.61,60.31v8.29h-1.27l-4.57-5.61v5.61h-1.53v-8.29h1.27l4.57,5.61v-5.61h1.53Z"/>
        <path class="cls-12" d="m153.98,68.45c-.6-.18-1.07-.42-1.42-.72l.53-1.2c.34.27.76.49,1.25.66.49.17.99.25,1.49.25.62,0,1.08-.1,1.38-.3.3-.2.46-.46.46-.78,0-.24-.08-.43-.25-.59-.17-.15-.38-.27-.65-.36-.26-.09-.62-.19-1.07-.3-.63-.15-1.14-.3-1.53-.45-.39-.15-.73-.38-1.01-.7s-.42-.75-.42-1.3c0-.46.12-.87.37-1.25.25-.37.62-.67,1.13-.89.5-.22,1.11-.33,1.84-.33.51,0,1,.06,1.49.19.49.13.91.31,1.27.55l-.49,1.2c-.36-.21-.74-.38-1.14-.49-.39-.11-.78-.17-1.15-.17-.61,0-1.06.1-1.36.31s-.44.48-.44.82c0,.24.08.43.25.58s.38.27.65.36c.26.09.62.19,1.07.3.61.14,1.12.29,1.52.44.39.15.73.39,1.01.7.28.32.42.74.42,1.28,0,.46-.12.87-.37,1.24-.25.37-.63.67-1.13.89s-1.12.33-1.85.33c-.64,0-1.25-.09-1.85-.27Z"/>
        <path class="cls-12" d="m167.42,60.66c.53.24.94.58,1.23,1.02.28.44.43.97.43,1.58s-.14,1.12-.43,1.57c-.28.45-.69.79-1.23,1.02-.53.24-1.16.36-1.88.36h-1.87v2.39h-1.54v-8.29h3.41c.72,0,1.35.12,1.88.35Zm-.42,3.82c.35-.28.52-.69.52-1.22s-.17-.94-.52-1.22c-.35-.28-.86-.43-1.53-.43h-1.8v3.29h1.8c.68,0,1.18-.14,1.53-.42Z"/>
        <path class="cls-12" d="m177,66.68h-4.15l-.82,1.92h-1.59l3.73-8.29h1.52l3.74,8.29h-1.61l-.82-1.92Zm-.51-1.21l-1.56-3.62-1.55,3.62h3.11Z"/>
        <path class="cls-12" d="m187.34,68.6l-1.69-2.43c-.07.01-.18.01-.32.01h-1.87v2.42h-1.54v-8.29h3.41c.72,0,1.34.12,1.88.35.53.24.94.58,1.23,1.02.28.44.43.97.43,1.58s-.15,1.16-.46,1.61c-.3.45-.74.79-1.31,1.01l1.91,2.72h-1.67Zm-.56-6.56c-.35-.28-.86-.43-1.53-.43h-1.8v3.3h1.8c.67,0,1.18-.14,1.53-.43.35-.29.52-.7.52-1.23s-.17-.93-.52-1.21Z"/>
        <path class="cls-12" d="m198.21,67.31v1.29h-6.22v-8.29h6.05v1.29h-4.51v2.16h4v1.27h-4v2.29h4.68Z"/>
        <path class="cls-12" d="m208.72,60.31v8.29h-1.27l-4.57-5.61v5.61h-1.53v-8.29h1.27l4.57,5.61v-5.61h1.53Z"/>
        <path class="cls-12" d="m213.93,68.17c-.67-.37-1.2-.87-1.59-1.52-.38-.65-.58-1.38-.58-2.19s.19-1.54.58-2.19.92-1.15,1.59-1.52c.68-.37,1.43-.55,2.27-.55.68,0,1.3.12,1.86.36s1.03.58,1.42,1.03l-.99.94c-.6-.65-1.34-.97-2.22-.97-.57,0-1.08.12-1.53.37s-.8.59-1.05,1.04c-.25.44-.38.94-.38,1.5s.13,1.06.38,1.5.6.79,1.05,1.04.96.37,1.53.37c.88,0,1.62-.33,2.22-.98l.99.95c-.39.45-.86.79-1.43,1.03s-1.19.36-1.87.36c-.82-.02-1.57-.21-2.25-.57Z"/>
        <path class="cls-12" d="m222.4,60.31h1.54v8.29h-1.54v-8.29Z"/>
        <path class="cls-12" d="m232.97,66.68h-4.15l-.82,1.92h-1.59l3.73-8.29h1.52l3.74,8.29h-1.61l-.82-1.92Zm-.5-1.21l-1.56-3.62-1.55,3.62h3.11Z"/>
        <path class="cls-12" d="m246.16,65.67v2.93h-1.54v-2.9l-3.26-5.39h1.65l2.43,4.04,2.45-4.04h1.52l-3.25,5.36Z"/>
        <path class="cls-12" d="m258.06,61.6v2.52h4v1.3h-4v3.17h-1.54v-8.29h6.05v1.29h-4.51Z"/>
        <path class="cls-12" d="m266.37,67.75c-.64-.64-.96-1.56-.96-2.77v-4.68h1.54v4.62c0,1.63.7,2.44,2.11,2.44s2.1-.81,2.1-2.44v-4.62h1.52v4.68c0,1.2-.32,2.12-.95,2.77-.64.64-1.53.97-2.67.97s-2.05-.32-2.69-.97Z"/>
        <path class="cls-12" d="m283.62,60.31v8.29h-1.27l-4.57-5.61v5.61h-1.53v-8.29h1.27l4.57,5.61v-5.61h1.53Z"/>
        <path class="cls-12" d="m288.84,68.17c-.67-.37-1.2-.87-1.59-1.52-.38-.65-.58-1.38-.58-2.19s.19-1.54.58-2.19.92-1.15,1.59-1.52c.68-.37,1.43-.55,2.27-.55.68,0,1.3.12,1.86.36s1.03.58,1.42,1.03l-.99.94c-.6-.65-1.34-.97-2.22-.97-.57,0-1.08.12-1.53.37s-.8.59-1.05,1.04c-.25.44-.38.94-.38,1.5s.13,1.06.38,1.5.6.79,1.05,1.04.96.37,1.53.37c.88,0,1.62-.33,2.22-.98l.99.95c-.39.45-.86.79-1.43,1.03-.56.24-1.19.36-1.87.36-.82-.02-1.58-.21-2.25-.57Z"/>
        <path class="cls-12" d="m297.3,60.31h1.54v8.29h-1.54v-8.29Z"/>
        <path class="cls-12" d="m304.09,68.17c-.68-.37-1.21-.88-1.6-1.53-.39-.65-.58-1.38-.58-2.19s.19-1.53.58-2.19c.39-.65.92-1.16,1.6-1.53.68-.37,1.44-.55,2.29-.55s1.61.18,2.29.55,1.21.87,1.6,1.52c.39.65.58,1.38.58,2.19s-.19,1.54-.58,2.19-.92,1.15-1.6,1.52c-.68.37-1.44.55-2.29.55-.85.02-1.62-.17-2.29-.53Zm3.77-1.18c.44-.25.79-.6,1.04-1.04.25-.45.38-.95.38-1.5s-.13-1.05-.38-1.5-.6-.79-1.04-1.04-.94-.37-1.49-.37-1.05.12-1.49.37-.79.6-1.04,1.04c-.25.45-.38.95-.38,1.5s.13,1.05.38,1.5.6.79,1.04,1.04.94.37,1.49.37c.55,0,1.05-.12,1.49-.37Zm-.88-8.98h1.74l-2.06,1.62h-1.28l1.6-1.62Z"/>
        <path class="cls-12" d="m321.26,60.31v8.29h-1.27l-4.57-5.61v5.61h-1.53v-8.29h1.27l4.57,5.61v-5.61h1.53Z"/>
        <path class="cls-12" d="m334.89,60.66c.53.24.94.58,1.23,1.02.28.44.43.97.43,1.58s-.14,1.12-.43,1.57c-.28.45-.69.79-1.23,1.02-.53.24-1.16.36-1.88.36h-1.87v2.39h-1.54v-8.29h3.41c.72,0,1.34.12,1.88.35Zm-.42,3.82c.35-.28.52-.69.52-1.22s-.17-.94-.52-1.22c-.35-.28-.86-.43-1.53-.43h-1.8v3.29h1.8c.67,0,1.18-.14,1.53-.42Z"/>
        <path class="cls-12" d="m340.39,67.75c-.64-.64-.96-1.56-.96-2.77v-4.68h1.54v4.62c0,1.63.7,2.44,2.11,2.44s2.1-.81,2.1-2.44v-4.62h1.52v4.68c0,1.2-.32,2.12-.95,2.77-.64.64-1.53.97-2.67.97s-2.05-.32-2.69-.97Zm3.29-9.74h1.74l-2.06,1.62h-1.28l1.6-1.62Z"/>
        <path class="cls-12" d="m357.23,65.04c.27.35.4.79.4,1.31,0,.72-.28,1.27-.83,1.66-.55.39-1.36.59-2.42.59h-4.12v-8.29h3.88c.98,0,1.73.19,2.26.57s.79.91.79,1.58c0,.41-.1.77-.28,1.09-.19.32-.45.56-.78.73.47.16.83.41,1.1.76Zm-5.43-3.52v2.29h2.18c.54,0,.95-.1,1.24-.29s.43-.48.43-.85-.14-.67-.43-.86-.7-.29-1.24-.29h-2.18Zm4.28,4.68c0-.8-.6-1.2-1.79-1.2h-2.49v2.39h2.49c1.19,0,1.79-.4,1.79-1.19Z"/>
        <path class="cls-12" d="m360.7,60.31h1.54v6.99h4.34v1.3h-5.87v-8.29h-.01Z"/>
        <path class="cls-12" d="m369.22,60.31h1.54v8.29h-1.54v-8.29Z"/>
        <path class="cls-12" d="m375.98,68.17c-.67-.37-1.2-.87-1.59-1.52-.38-.65-.58-1.38-.58-2.19s.19-1.54.58-2.19.92-1.15,1.59-1.52c.68-.37,1.43-.55,2.27-.55.68,0,1.3.12,1.86.36s1.03.58,1.42,1.03l-1,.94c-.6-.65-1.34-.97-2.22-.97-.57,0-1.08.12-1.53.37s-.8.59-1.05,1.04c-.25.44-.38.94-.38,1.5s.13,1.06.38,1.5.6.79,1.05,1.04.96.37,1.53.37c.88,0,1.62-.33,2.22-.98l1,.95c-.39.45-.86.79-1.43,1.03s-1.19.36-1.87.36c-.82-.02-1.57-.21-2.25-.57Z"/>
        <path class="cls-12" d="m389.65,66.68h-4.15l-.82,1.92h-1.59l3.73-8.29h1.52l3.74,8.29h-1.61l-.82-1.92Zm-.51-1.21l-1.56-3.62-1.55,3.62h3.11Z"/>
      </g>
    </g>
    <g>
      <path class="cls-2" d="m17.22,35.04c0,.17-.14.3-.3.3-.17,0-.3-.13-.3-.3s.14-.3.3-.3c.16,0,.3.13.3.3Z"/>
      <path class="cls-6" d="m32.45,11s-6.67.09-10.89,2.51c-5.87,3.36-10.57,9.57-10.46,18.23v3.59h5.82c.16,0,.3-.13.3-.3v-1.44c0-.36,0-.72-.01-1.08-.02-1.11.13-5.08,2.73-8.79,0,0,3.19-5.07,9.54-6.36,0,0,1.32-.26,2.98-.28v-6.08h-.01Z"/>
      <path class="cls-5" d="m81.2,32.35s-.09-6.67-2.51-10.9c-3.36-5.87-9.57-10.57-18.23-10.46h-3.6v5.82c0,.17.13.3.3.3h1.45c.36,0,.72-.01,1.08-.01,1.11-.02,5.08.12,8.8,2.73,0,0,5.07,3.19,6.35,9.54,0,0,.26,1.32.28,2.98,0,0,6.08,0,6.08,0Z"/>
      <path class="cls-13" d="m59.86,81.14s6.67-.1,10.89-2.51c5.87-3.36,10.57-9.57,10.46-18.23v-3.6h-5.82c-.16,0-.3.13-.3.3v1.45c0,.36,0,.72.01,1.08.02,1.11-.13,5.08-2.73,8.79,0,0-3.19,5.07-9.54,6.36,0,0-1.32.26-2.98.28v6.08h.01Z"/>
      <path class="cls-14" d="m11.11,59.78s.1,6.67,2.51,10.89c3.36,5.87,9.57,10.57,18.23,10.46h3.6v-5.82c0-.16-.13-.3-.3-.3h-1.45c-.36,0-.72,0-1.08.01-1.11.02-5.08-.13-8.79-2.73,0,0-5.07-3.19-6.36-9.54,0,0-.26-1.32-.28-2.98h-6.08Z"/>
      <path class="cls-8" d="m35.55,11v11.38c0,1.16-.51,2.19-1.32,2.89-.47.41-1.21.67-1.75.82-.31.09-.64.13-.96.17-.25.03-.48.09-.75.16-.89.24-1.75.69-2.43,1.32,0,0-1.93,1.58-2.06,3.97-.11,2.2-1.81,3.64-3.93,3.64h-2.13c-.28-6.25,1.14-9.92,5.47-13.13,2.35-1.74,4.85-1.95,6.02-2.02.41-.02.73-.37.73-.78v-8.4l3.11-.02Z"/>
      <path class="cls-10" d="m81.2,35.44h-11.38c-1.16,0-2.19-.51-2.89-1.32-.41-.47-.67-1.21-.82-1.75-.09-.31-.13-.64-.17-.96-.03-.25-.09-.48-.16-.75-.24-.89-.69-1.75-1.32-2.43,0,0-1.58-1.93-3.97-2.06-2.2-.12-3.64-1.82-3.64-3.93v-2.13c6.25-.28,9.92,1.14,13.13,5.47,1.74,2.35,1.95,4.85,2.02,6.02.02.41.37.73.78.73h8.4l.02,3.11Z"/>
      <path class="cls-4" d="m56.76,81.14v-11.37c0-1.16.51-2.19,1.32-2.89.47-.41,1.21-.67,1.75-.82.31-.09.64-.13.96-.17.25-.03.48-.09.75-.16.89-.24,1.75-.69,2.43-1.32,0,0,1.93-1.58,2.06-3.97.12-2.2,1.82-3.64,3.93-3.64h2.13c.28,6.25-1.14,9.92-5.47,13.13-2.35,1.74-4.85,1.95-6.02,2.02-.41.02-.73.37-.73.78v8.4h-3.11Z"/>
      <path class="cls-7" d="m11.11,56.69h11.38c1.16,0,2.19.51,2.89,1.32.41.47.67,1.21.82,1.75.09.31.13.64.17.96.03.25.09.48.16.75.24.89.69,1.75,1.32,2.43,0,0,1.58,1.93,3.97,2.06,2.2.12,3.64,1.82,3.64,3.93v2.13c-6.25.28-9.92-1.14-13.13-5.47-1.74-2.35-1.95-4.85-2.02-6.02-.02-.41-.37-.73-.78-.73h-8.4l-.02-3.11Z"/>
      <rect class="cls-11" x="29.38" y="35.42" width="15.27" height="3.05"/>
      <path class="cls-11" d="m29.38,32.37h15.27v-3.05h-12.64c-1.45,0-2.62,1.17-2.62,2.62v.43h0Z"/>
      <rect class="cls-11" x="29.38" y="41.52" width="15.27" height="3.05"/>
      <rect class="cls-11" x="72.05" y="38.39" width="3.05" height="6.11"/>
      <polygon class="cls-11" points="65.94 38.39 65.94 53.65 81.21 53.65 81.21 38.39 78.16 38.39 78.16 47.55 69 47.55 69 38.39 65.94 38.39"/>
      <path class="cls-11" d="m51.61,35.42l1.79-3.05.36-.62,1.38-2.35s.07-.07.12-.08h-7.6v15.27h7.6s-.09-.03-.12-.08l-1.38-2.35-.36-.62-1.79-3.05-.85-1.44s-.03-.12,0-.17l.85-1.46Z"/>
      <path class="cls-11" d="m58.98,38.47l-1.79,3.05-.36.62-1.38,2.35s-.07.07-.12.08h7.6v-12.62c0-1.46-1.18-2.64-2.64-2.64h-4.96s.09.03.12.08l1.38,2.35.36.62,1.79,3.05.85,1.44s.03.12,0,.17l-.85,1.45Z"/>
      <path class="cls-11" d="m47.89,11.67l.83.76,1.13.05c.31.01.61.08.88.2.62.26,1.11.76,1.38,1.38.12.27.19.57.2.88l.05,1.13.76.83c.06.07.12.14.17.21.3.41.46.88.49,1.36v-7.46h-7.46c.48.03.95.2,1.35.49.08.05.15.11.22.17"/>
      <path class="cls-11" d="m39.19,16.9l.76-.83.05-1.13c.01-.31.08-.61.2-.88.26-.62.76-1.11,1.38-1.37.27-.12.57-.19.88-.2l1.13-.05.83-.76c.07-.06.14-.12.21-.17.4-.3.87-.46,1.35-.49h-7.46v7.46c.03-.48.2-.95.49-1.35.06-.09.12-.16.18-.23"/>
      <path class="cls-11" d="m53.79,18.81c-.03.48-.2.95-.49,1.36-.05.07-.11.14-.17.21l-.76.83-.05,1.13c-.01.31-.08.61-.2.88-.26.62-.76,1.11-1.38,1.38-.27.12-.57.18-.88.2l-1.13.05-.83.76c-.07.06-.14.12-.21.17-.4.3-.87.46-1.35.49h7.46v-7.46h0Z"/>
      <path class="cls-11" d="m44.63,25.77c-.07-.05-.14-.11-.21-.17l-.83-.76-1.13-.05c-.31,0-.61-.08-.88-.2-.62-.26-1.11-.76-1.38-1.38-.12-.27-.19-.57-.2-.88l-.05-1.13-.76-.83c-.06-.07-.12-.14-.17-.21-.3-.4-.46-.87-.49-1.35v7.46h7.46c-.49-.03-.96-.2-1.36-.5"/>
      <path class="cls-11" d="m44.63,18.64c0,.84.68,1.53,1.53,1.53s1.53-.68,1.53-1.53-.68-1.53-1.53-1.53-1.53.68-1.53,1.53"/>
      <polygon class="cls-11" points="18.84 49.9 15.67 46.06 18.84 42.22 15.89 38.45 11.11 38.45 11.11 53.72 15.69 53.72 18.84 49.9"/>
      <polygon class="cls-11" points="26.35 53.72 26.35 38.45 18.9 38.45 22.01 42.22 18.84 46.06 22.01 49.9 18.86 53.72 26.35 53.72"/>
      <polygon class="cls-11" points="50.71 50.65 47.66 50.65 47.66 53.7 53.77 53.7 53.77 47.59 50.71 47.59 50.71 50.65"/>
      <polygon class="cls-11" points="56.82 47.59 56.82 53.7 62.92 53.7 62.92 50.65 59.87 50.65 59.87 47.59 56.82 47.59"/>
      <rect class="cls-11" x="53.77" y="53.7" width="3.05" height="3.05"/>
      <polygon class="cls-11" points="53.77 62.86 53.77 56.75 47.66 56.75 47.66 59.81 50.71 59.81 50.71 62.86 53.77 62.86"/>
      <polygon class="cls-11" points="59.87 59.81 62.93 59.81 62.93 56.75 56.82 56.75 56.82 62.86 59.87 62.86 59.87 59.81"/>
      <polygon class="cls-11" points="44.64 56.07 44.64 47.6 29.38 47.6 29.38 52.69 31.07 52.69 31.07 54.37 32.77 54.37 32.77 56.08 37.86 56.08 37.86 52.69 36.16 52.69 36.16 54.38 34.47 54.38 34.47 50.99 39.55 50.99 39.55 52.69 41.25 52.69 41.25 54.37 42.95 54.37 42.95 56.07 44.64 56.07"/>
      <path class="cls-11" d="m32.05,62.86h12.59v-5.09h-15.27v2.42c.01,1.47,1.2,2.67,2.68,2.67"/>
      <path class="cls-11" d="m48.73,74.67c-1.04,0-1.51.16-2.1.35-.68.23-1.53.51-3.07.51s-2.39-.28-3.07-.51c-.57-.19-1.02-.34-1.99-.35v1.65c1.47.01,2.29.29,2.96.51.59.2,1.05.35,2.1.35s1.51-.16,2.09-.35c.68-.23,1.53-.51,3.07-.51s2.39.28,3.06.51c.57.19,1.02.34,1.99.35v-1.64c-1.47-.01-2.29-.29-2.96-.51-.58-.2-1.04-.36-2.08-.36"/>
      <path class="cls-11" d="m48.73,69.97c-1.04,0-1.51.16-2.1.35-.68.23-1.53.51-3.07.51s-2.39-.28-3.07-.51c-.57-.19-1.02-.34-1.99-.35v1.65c1.47.01,2.29.29,2.96.51.59.2,1.05.35,2.1.35s1.51-.16,2.1-.35c.68-.23,1.53-.51,3.07-.51s2.39.28,3.06.51c.57.19,1.02.34,1.99.35v-1.64c-1.47-.01-2.29-.29-2.96-.51-.59-.2-1.05-.36-2.09-.36"/>
      <path class="cls-11" d="m43.57,67.78c1.04,0,1.51-.16,2.1-.35.68-.23,1.53-.51,3.07-.51s2.39.28,3.07.51c.57.19,1.02.34,1.99.35v-1.9h-15.27v1.04c1.47.01,2.29.29,2.96.51.57.2,1.04.35,2.08.35"/>
      <path class="cls-11" d="m48.73,79.24c-1.04,0-1.51.16-2.1.35-.68.23-1.53.51-3.07.51s-2.39-.28-3.07-.51c-.57-.19-1.02-.34-1.99-.35v1.9h15.27v-1.04c-1.47-.01-2.29-.29-2.96-.51-.58-.19-1.04-.35-2.08-.35"/>
    </g>
    <rect class="cls-1" width="405.66" height="92.53"/>
  </g>
</svg>