<?xml version="1.0" encoding="UTF-8" standalone="no"?>
<!DOCTYPE svg PUBLIC "-//W3C//DTD SVG 1.1//EN" "http://www.w3.org/Graphics/SVG/1.1/DTD/svg11.dtd">
<svg width="100%" height="100%" viewBox="0 0 2688 435" version="1.1" xmlns="http://www.w3.org/2000/svg" xmlns:xlink="http://www.w3.org/1999/xlink" xml:space="preserve" xmlns:serif="http://www.serif.com/" style="fill-rule:evenodd;clip-rule:evenodd;stroke-miterlimit:10;">
    <g transform="matrix(1,0,0,1,-134.813,-847.952)">
        <g transform="matrix(1.24167,0,0,0.812641,-229.053,208.82)">
            <rect x="293.046" y="786.487" width="2164.78" height="534.627" style="fill:none;"/>
        </g>
        <g transform="matrix(0,4.16667,4.16667,0,716.987,1065.18)">
            <path d="M-35.07,-35.07L35.07,-35.07" style="fill:none;fill-rule:nonzero;stroke:rgb(154,35,79);stroke-width:1.95px;"/>
        </g>
        <g transform="matrix(0,4.16667,4.16667,0,2019.74,1065.18)">
            <path d="M-35.07,-35.07L35.07,-35.07" style="fill:none;fill-rule:nonzero;stroke:rgb(154,35,79);stroke-width:1.95px;"/>
        </g>
        <g transform="matrix(1,0,0,1,-121.259,50.6453)">
            <g transform="matrix(4.16667,0,0,4.16667,943.574,983.374)">
                <path d="M0,-12.035C-0.429,-12.398 -1.242,-12.806 -1.992,-13.084L-1.671,-14.584C0.106,-14.584 2.27,-14.627 3.896,-14.69C5.29,-12.099 9.252,-7.281 12.1,-3.854C12.057,-8.502 11.842,-11.499 11.563,-12.035C11.328,-12.377 9.979,-12.785 9.036,-13.084L9.358,-14.584L16.918,-14.584L17.238,-13.084L15.099,-12.313C14.818,-10.943 14.67,-5.353 14.67,2.335L11.35,2.655L9.145,-0.556C7.388,-2.955 5.097,-5.804 3.148,-8.116C3.233,-3.576 3.404,-0.493 3.618,0C3.941,0.386 5.312,0.729 6.468,1.049L6.146,2.549L-1.671,2.549L-1.992,1.049L0.149,0.3C0.256,-0.342 0.364,-2.526 0.364,-6.146C0.364,-9.486 0.3,-11.629 0,-12.035" style="fill:rgb(153,36,79);fill-rule:nonzero;"/>
            </g>
            <g transform="matrix(4.16667,0,0,4.16667,762.438,927.802)">
                <path d="M0,13.963L2.15,13.214C2.263,12.489 2.318,11.112 2.318,9.084L2.318,4.662C2.318,2.392 2.247,1.16 2.103,0.966C1.924,0.725 1.224,0.403 0,-0L0.314,-1.474L8.551,-1.474L8.865,-0L6.715,0.749C6.603,1.49 6.547,2.867 6.547,4.88L6.547,6.015L13.745,6.112L13.745,4.662C13.745,2.392 13.674,1.16 13.527,0.966C13.351,0.725 12.649,0.403 11.427,-0L11.741,-1.474L19.978,-1.474L20.292,-0L18.142,0.749C18.029,1.49 17.974,2.867 17.974,4.88L17.974,9.3C17.974,11.572 18.045,12.804 18.189,12.997C18.368,13.238 19.067,13.56 20.292,13.963L19.978,15.437L11.741,15.437L11.427,13.963L13.577,13.214C13.689,12.474 13.745,11.096 13.745,9.084L13.745,8.238L6.547,8.382L6.547,9.3C6.547,11.572 6.619,12.804 6.765,12.997C6.941,13.238 7.642,13.56 8.865,13.963L8.551,15.437L0.314,15.437L0,13.963Z" style="fill:rgb(153,36,79);fill-rule:nonzero;"/>
            </g>
            <g transform="matrix(4.16667,0,0,4.16667,893.896,931.222)">
                <path d="M0,12.321C1.337,12.321 2.334,12.031 2.995,11.451C3.302,11.016 3.587,10.348 3.853,9.446C4.118,8.545 4.251,7.522 4.251,6.378C4.251,4.253 3.913,2.658 3.237,1.595C2.561,0.532 1.425,0.001 -0.169,0.001C-1.394,0.001 -2.384,0.291 -3.142,0.87C-3.979,2.094 -4.397,3.914 -4.397,6.33C-4.397,8.231 -4.026,9.704 -3.286,10.751C-2.546,11.798 -1.45,12.321 0,12.321M-0.29,14.978C-2.851,14.978 -4.917,14.229 -6.487,12.732C-8.058,11.234 -8.842,9.213 -8.842,6.668C-8.842,3.899 -7.993,1.652 -6.293,-0.072C-4.594,-1.795 -2.376,-2.657 0.362,-2.657C2.858,-2.657 4.871,-1.896 6.4,-0.374C7.932,1.148 8.696,3.198 8.696,5.774C8.696,8.48 7.858,10.69 6.184,12.405C4.509,14.121 2.351,14.978 -0.29,14.978" style="fill:rgb(153,36,79);fill-rule:nonzero;"/>
            </g>
            <g transform="matrix(4.16667,0,0,4.16667,1024.13,926.898)">
                <path d="M0,14.18L2.15,13.431C2.263,12.706 2.318,11.329 2.318,9.301L2.318,4.879C2.318,2.56 2.238,1.32 2.077,1.159C1.803,0.886 1.11,0.572 0,0.217L0.314,-1.257L7.078,-1.257C10.073,-1.257 12.578,-1.329 14.591,-1.474C14.913,-1.071 15.17,-0.684 15.363,-0.315C15.187,0.813 14.904,2.206 14.519,3.865C13.52,3.913 12.674,3.865 11.981,3.72L11.329,0.797C10.733,0.732 9.888,0.701 8.793,0.701C8.245,0.701 7.553,0.717 6.715,0.748C6.603,1.956 6.547,3.398 6.547,5.073L6.547,6.329L11.668,6.039L12.151,6.667L11.789,8.672L6.547,8.455L6.547,9.517C6.547,11.837 6.635,13.085 6.812,13.262C7.118,13.552 7.947,13.697 9.3,13.697C10.121,13.697 10.911,13.624 11.668,13.479L12.514,10.532C13.447,10.468 14.356,10.508 15.243,10.653C15.323,12.28 15.323,13.947 15.243,15.654L0.314,15.654L0,14.18Z" style="fill:rgb(153,36,79);fill-rule:nonzero;"/>
            </g>
            <g transform="matrix(4.16667,0,0,4.16667,1130.22,993.63)">
                <path d="M0,-17.635C2.173,-17.635 4.009,-17.199 5.508,-16.33L5.918,-15.581C5.644,-14.035 5.361,-12.827 5.072,-11.957C4.09,-11.909 3.212,-11.949 2.439,-12.078C2.311,-13.141 2.141,-13.979 1.933,-14.591C1.353,-14.961 0.579,-15.147 -0.388,-15.147C-1.257,-15.147 -1.926,-14.993 -2.393,-14.687C-2.698,-14.172 -2.852,-13.681 -2.852,-13.214C-2.852,-12.715 -2.687,-12.276 -2.355,-11.897C-2.026,-11.518 -1.595,-11.204 -1.063,-10.955C-0.532,-10.705 0.052,-10.464 0.688,-10.23C1.324,-9.996 1.959,-9.731 2.596,-9.433C3.232,-9.135 3.816,-8.801 4.348,-8.431C4.88,-8.06 5.31,-7.573 5.64,-6.969C5.97,-6.365 6.136,-5.669 6.136,-4.88C6.136,-3.43 5.495,-2.255 4.215,-1.352C2.935,-0.45 1.264,0 -0.798,0C-2.893,0 -5.024,-0.475 -7.199,-1.425L-7.199,-1.546C-7.231,-2.915 -7.199,-4.187 -7.104,-5.363C-6.218,-5.523 -5.275,-5.564 -4.277,-5.484C-4.034,-4.421 -3.802,-3.575 -3.576,-2.947C-2.932,-2.56 -1.982,-2.367 -0.726,-2.367C0.096,-2.367 0.757,-2.479 1.256,-2.706C1.562,-3.108 1.715,-3.631 1.715,-4.276C1.715,-4.726 1.554,-5.117 1.231,-5.447C0.908,-5.778 0.485,-6.055 -0.037,-6.281C-0.561,-6.506 -1.137,-6.728 -1.765,-6.945C-2.393,-7.162 -3.021,-7.416 -3.648,-7.706C-4.277,-7.996 -4.853,-8.325 -5.376,-8.697C-5.899,-9.067 -6.322,-9.562 -6.645,-10.182C-6.966,-10.802 -7.127,-11.515 -7.127,-12.32C-7.127,-13.866 -6.446,-15.138 -5.086,-16.137C-3.726,-17.135 -2.03,-17.635 0,-17.635" style="fill:rgb(153,36,79);fill-rule:nonzero;"/>
            </g>
            <g transform="matrix(4.16667,0,0,4.16667,1179.94,927.102)">
                <path d="M0,14.131L2.15,13.382C2.263,12.657 2.318,11.28 2.318,9.252L2.318,0.652L2.077,0.652C1.272,0.652 0.523,0.692 -0.169,0.772L-1.015,4.009C-2.11,4.089 -3.044,4.049 -3.816,3.888C-3.897,2.214 -3.897,0.482 -3.816,-1.306L4.929,-1.306C7.973,-1.306 10.363,-1.362 12.104,-1.474C12.44,-1.04 12.69,-0.669 12.852,-0.364C12.787,0.973 12.649,2.399 12.44,3.912C12.151,3.961 11.716,3.981 11.137,3.973C10.557,3.965 10.123,3.936 9.832,3.888L9.06,0.772C8.512,0.692 7.755,0.652 6.788,0.652L6.547,0.652L6.547,9.468C6.547,11.74 6.619,12.972 6.765,13.165C6.941,13.406 7.642,13.728 8.866,14.131L8.551,15.605L0.314,15.605L0,14.131Z" style="fill:rgb(153,36,79);fill-rule:nonzero;"/>
            </g>
            <g transform="matrix(4.16667,0,0,4.16667,1241.54,927.802)">
                <path d="M0,13.963L2.149,13.214C2.263,12.489 2.318,11.112 2.318,9.084L2.318,4.662C2.318,2.392 2.246,1.16 2.102,0.966C1.924,0.725 1.223,0.403 0,-0L0.313,-1.474L8.551,-1.474L8.864,-0L6.715,0.749C6.602,1.49 6.546,2.867 6.546,4.88L6.546,9.3C6.546,11.572 6.618,12.804 6.764,12.997C6.94,13.238 7.641,13.56 8.864,13.963L8.551,15.437L0.313,15.437L0,13.963Z" style="fill:rgb(153,36,79);fill-rule:nonzero;"/>
            </g>
            <g transform="matrix(4.16667,0,0,4.16667,1316.83,947.533)">
                <path d="M0,4.565C0,6.836 0.071,8.068 0.218,8.261C0.41,8.503 0.934,8.671 1.788,8.769C2.641,8.865 3.51,8.769 4.396,8.479C6.297,7.432 7.246,5.306 7.246,2.101C7.246,0.861 7.057,-0.254 6.679,-1.245C6.301,-2.235 5.846,-2.94 5.313,-3.358C4.525,-3.858 3.454,-4.107 2.102,-4.107C1.344,-4.107 0.699,-4.059 0.168,-3.962C0.056,-3.222 0,-1.852 0,0.145L0,4.565ZM-6.547,9.228L-4.396,8.479C-4.284,7.753 -4.229,6.377 -4.229,4.348L-4.229,-0.073C-4.229,-2.344 -4.3,-3.576 -4.445,-3.769C-4.623,-4.01 -5.324,-4.332 -6.547,-4.735L-6.232,-6.209L-2.513,-6.209C-2.239,-6.209 -1.474,-6.233 -0.218,-6.282C1.038,-6.33 1.892,-6.354 2.343,-6.354C4.034,-6.354 5.499,-6.133 6.739,-5.689C7.979,-5.247 8.95,-4.627 9.651,-3.829C10.351,-3.032 10.866,-2.142 11.196,-1.16C11.526,-0.178 11.692,0.91 11.692,2.101C11.692,4.903 10.862,7.074 9.203,8.612C7.544,10.149 5.499,10.919 3.067,10.919C2.552,10.919 1.654,10.882 0.374,10.81C-0.906,10.737 -1.812,10.701 -2.345,10.701L-6.232,10.701L-6.547,9.228Z" style="fill:rgb(153,36,79);fill-rule:nonzero;"/>
            </g>
            <g transform="matrix(4.16667,0,0,4.16667,1399.57,951.459)">
                <path d="M0,2.367L4.589,2.463C3.736,-0.032 2.923,-2.352 2.149,-4.494C1.521,-2.642 0.805,-0.355 0,2.367M0.82,8.285L0.483,9.759L-6.644,9.759L-6.957,8.285L-5.098,7.536C-3.81,4.429 -2.263,0.338 -0.459,-4.736L0.217,-7.152C2.246,-7.312 4.034,-7.392 5.579,-7.392C5.691,-6.958 5.982,-6.072 6.45,-4.736C8.107,-0.032 9.622,4.066 10.991,7.561L12.875,8.285L12.562,9.759L4.348,9.759L4.034,8.285L6.328,7.561C6.039,6.707 5.709,5.717 5.338,4.589L-0.701,4.734C-0.733,4.847 -1.007,5.789 -1.522,7.561L0.82,8.285Z" style="fill:rgb(153,36,79);fill-rule:nonzero;"/>
            </g>
            <g transform="matrix(4.16667,0,0,4.16667,1486.54,947.533)">
                <path d="M0,4.565C0,6.836 0.071,8.068 0.218,8.261C0.41,8.503 0.934,8.671 1.788,8.769C2.641,8.865 3.51,8.769 4.396,8.479C6.297,7.432 7.246,5.306 7.246,2.101C7.246,0.861 7.057,-0.254 6.679,-1.245C6.301,-2.235 5.846,-2.94 5.313,-3.358C4.525,-3.858 3.454,-4.107 2.102,-4.107C1.344,-4.107 0.699,-4.059 0.168,-3.962C0.056,-3.222 0,-1.852 0,0.145L0,4.565ZM-6.547,9.228L-4.396,8.479C-4.284,7.753 -4.229,6.377 -4.229,4.348L-4.229,-0.073C-4.229,-2.344 -4.3,-3.576 -4.445,-3.769C-4.623,-4.01 -5.324,-4.332 -6.547,-4.735L-6.232,-6.209L-2.513,-6.209C-2.239,-6.209 -1.474,-6.233 -0.218,-6.282C1.038,-6.33 1.892,-6.354 2.343,-6.354C4.034,-6.354 5.499,-6.133 6.739,-5.689C7.979,-5.247 8.95,-4.627 9.651,-3.829C10.351,-3.032 10.866,-2.142 11.196,-1.16C11.526,-0.178 11.692,0.91 11.692,2.101C11.692,4.903 10.862,7.074 9.203,8.612C7.544,10.149 5.499,10.919 3.067,10.919C2.552,10.919 1.654,10.882 0.374,10.81C-0.906,10.737 -1.812,10.701 -2.345,10.701L-6.232,10.701L-6.547,9.228Z" style="fill:rgb(153,36,79);fill-rule:nonzero;"/>
            </g>
            <g transform="matrix(4.16667,0,0,4.16667,767.956,1015.3)">
                <path d="M0,7.984C-0.598,7.802 -1.068,7.561 -1.417,7.261L-0.883,6.065C-0.543,6.334 -0.128,6.552 0.367,6.722C0.86,6.892 1.354,6.977 1.853,6.977C2.468,6.977 2.929,6.879 3.232,6.681C3.536,6.484 3.688,6.223 3.688,5.899C3.688,5.663 3.604,5.466 3.434,5.313C3.264,5.158 3.049,5.039 2.789,4.951C2.528,4.865 2.173,4.766 1.722,4.655C1.091,4.506 0.579,4.355 0.188,4.205C-0.202,4.055 -0.537,3.82 -0.818,3.501C-1.1,3.181 -1.238,2.749 -1.238,2.203C-1.238,1.746 -1.114,1.329 -0.865,0.954C-0.616,0.579 -0.242,0.281 0.26,0.06C0.761,-0.161 1.375,-0.272 2.101,-0.272C2.607,-0.272 3.104,-0.209 3.594,-0.082C4.084,0.045 4.507,0.226 4.86,0.463L4.375,1.659C4.012,1.445 3.633,1.284 3.238,1.173C2.844,1.063 2.461,1.007 2.089,1.007C1.481,1.007 1.029,1.11 0.732,1.315C0.437,1.521 0.289,1.793 0.289,2.132C0.289,2.37 0.374,2.564 0.544,2.713C0.714,2.863 0.929,2.982 1.189,3.068C1.45,3.155 1.806,3.254 2.256,3.364C2.87,3.506 3.377,3.654 3.771,3.809C4.165,3.962 4.504,4.198 4.784,4.513C5.063,4.829 5.204,5.256 5.204,5.793C5.204,6.251 5.08,6.665 4.831,7.036C4.583,7.407 4.205,7.704 3.7,7.925C3.195,8.146 2.579,8.256 1.853,8.256C1.213,8.256 0.595,8.166 0,7.984" style="fill:rgb(178,142,92);fill-rule:nonzero;"/>
            </g>
            <g transform="matrix(4.16667,0,0,4.16667,827.839,1020.04)">
                <path d="M0,5.708L0,7L-6.218,7L-6.218,-1.292L-0.166,-1.292L-0.166,-0.001L-4.679,-0.001L-4.679,2.155L-0.675,2.155L-0.675,3.422L-4.679,3.422L-4.679,5.708L0,5.708Z" style="fill:rgb(178,142,92);fill-rule:nonzero;"/>
            </g>
            <g transform="matrix(4.16667,0,0,4.16667,847.306,1016.46)">
                <path d="M0,7.426C-0.675,7.059 -1.204,6.552 -1.586,5.905C-1.97,5.257 -2.161,4.527 -2.161,3.713C-2.161,2.9 -1.968,2.169 -1.58,1.522C-1.194,0.874 -0.663,0.367 0.012,0C0.687,-0.367 1.444,-0.551 2.281,-0.551C2.96,-0.551 3.579,-0.432 4.14,-0.195C4.701,0.041 5.174,0.385 5.561,0.835L4.566,1.771C3.967,1.123 3.228,0.799 2.352,0.799C1.783,0.799 1.274,0.924 0.823,1.172C0.373,1.421 0.021,1.767 -0.229,2.209C-0.483,2.651 -0.608,3.153 -0.608,3.713C-0.608,4.274 -0.483,4.776 -0.229,5.218C0.021,5.659 0.373,6.005 0.823,6.253C1.274,6.502 1.783,6.626 2.352,6.626C3.228,6.626 3.967,6.3 4.566,5.644L5.561,6.591C5.174,7.041 4.698,7.384 4.134,7.621C3.568,7.859 2.948,7.977 2.268,7.977C1.431,7.977 0.676,7.793 0,7.426" style="fill:rgb(178,142,92);fill-rule:nonzero;"/>
            </g>
            <g transform="matrix(4.16667,0,0,4.16667,902.852,1042)">
                <path d="M0,-4.833C-0.348,-5.117 -0.857,-5.259 -1.527,-5.259L-3.328,-5.259L-3.328,-1.955L-1.527,-1.955C-0.857,-1.955 -0.348,-2.099 0,-2.387C0.348,-2.675 0.521,-3.084 0.521,-3.613C0.521,-4.142 0.348,-4.548 0,-4.833M0.557,1.729L-1.137,-0.699C-1.208,-0.691 -1.315,-0.687 -1.457,-0.687L-3.328,-0.687L-3.328,1.729L-4.868,1.729L-4.868,-6.562L-1.457,-6.562C-0.738,-6.562 -0.112,-6.443 0.42,-6.207C0.953,-5.97 1.362,-5.63 1.646,-5.188C1.931,-4.746 2.072,-4.221 2.072,-3.613C2.072,-2.989 1.92,-2.452 1.617,-2.002C1.312,-1.552 0.877,-1.216 0.308,-0.995L2.214,1.729L0.557,1.729Z" style="fill:rgb(178,142,92);fill-rule:nonzero;"/>
            </g>
            <g transform="matrix(4.16667,0,0,4.16667,950.471,1020.04)">
                <path d="M0,5.708L0,7L-6.218,7L-6.218,-1.292L-0.166,-1.292L-0.166,-0.001L-4.679,-0.001L-4.679,2.155L-0.675,2.155L-0.675,3.422L-4.679,3.422L-4.679,5.708L0,5.708Z" style="fill:rgb(178,142,92);fill-rule:nonzero;"/>
            </g>
            <g transform="matrix(4.16667,0,0,4.16667,970.56,1043.78)">
                <path d="M0,-5.685L-2.748,-5.685L-2.748,-6.988L4.287,-6.988L4.287,-5.685L1.541,-5.685L1.541,1.303L0,1.303L0,-5.685Z" style="fill:rgb(178,142,92);fill-rule:nonzero;"/>
            </g>
            <g transform="matrix(4.16667,0,0,4.16667,1017.74,1027.69)">
                <path d="M0,2.037L-1.564,-1.588L-3.115,2.037L0,2.037ZM0.509,3.245L-3.637,3.245L-4.454,5.164L-6.041,5.164L-2.311,-3.127L-0.795,-3.127L2.948,5.164L1.337,5.164L0.509,3.245Z" style="fill:rgb(178,142,92);fill-rule:nonzero;"/>
            </g>
            <g transform="matrix(4.16667,0,0,4.16667,1060.63,1042)">
                <path d="M0,-4.833C-0.348,-5.117 -0.857,-5.259 -1.527,-5.259L-3.329,-5.259L-3.329,-1.955L-1.527,-1.955C-0.857,-1.955 -0.348,-2.099 0,-2.387C0.347,-2.675 0.521,-3.084 0.521,-3.613C0.521,-4.142 0.347,-4.548 0,-4.833M0.557,1.729L-1.137,-0.699C-1.208,-0.691 -1.315,-0.687 -1.457,-0.687L-3.329,-0.687L-3.329,1.729L-4.868,1.729L-4.868,-6.562L-1.457,-6.562C-0.739,-6.562 -0.112,-6.443 0.42,-6.207C0.953,-5.97 1.362,-5.63 1.646,-5.188C1.93,-4.746 2.072,-4.221 2.072,-3.613C2.072,-2.989 1.92,-2.452 1.617,-2.002C1.312,-1.552 0.877,-1.216 0.308,-0.995L2.214,1.729L0.557,1.729Z" style="fill:rgb(178,142,92);fill-rule:nonzero;"/>
            </g>
            <g transform="matrix(4.16667,0,0,4.16667,-1267.76,-3340.56)">
                <path d="M564.024,1045.25L565.563,1045.25L565.563,1053.55L564.024,1053.55L564.024,1045.25ZM565.398,1042.96L567.14,1042.96L565.078,1044.58L563.799,1044.58L565.398,1042.96Z" style="fill:rgb(178,142,92);fill-rule:nonzero;"/>
            </g>
            <g transform="matrix(4.16667,0,0,4.16667,1124.29,1027.69)">
                <path d="M0,2.037L-1.564,-1.588L-3.115,2.037L0,2.037ZM0.509,3.245L-3.637,3.245L-4.454,5.164L-6.041,5.164L-2.311,-3.127L-0.795,-3.127L2.948,5.164L1.337,5.164L0.509,3.245Z" style="fill:rgb(178,142,92);fill-rule:nonzero;"/>
            </g>
            <g transform="matrix(4.16667,0,0,4.16667,1181.24,1020.09)">
                <path d="M0,5.685C0.608,5.685 1.143,5.569 1.605,5.336C2.067,5.102 2.423,4.771 2.672,4.341C2.919,3.911 3.043,3.411 3.043,2.843C3.043,2.274 2.919,1.774 2.672,1.344C2.423,0.914 2.067,0.582 1.605,0.349C1.143,0.117 0.608,0 0,0L-2.014,0L-2.014,5.685L0,5.685ZM-3.553,-1.303L0.071,-1.303C0.955,-1.303 1.741,-1.131 2.429,-0.788C3.115,-0.444 3.647,0.041 4.026,0.669C4.405,1.297 4.596,2.022 4.596,2.843C4.596,3.664 4.405,4.389 4.026,5.017C3.647,5.644 3.115,6.129 2.429,6.473C1.741,6.816 0.955,6.988 0.071,6.988L-3.553,6.988L-3.553,-1.303Z" style="fill:rgb(178,142,92);fill-rule:nonzero;"/>
            </g>
            <g transform="matrix(4.16667,0,0,4.16667,1239.02,1020.04)">
                <path d="M0,5.708L0,7L-6.217,7L-6.217,-1.292L-0.165,-1.292L-0.165,-0.001L-4.678,-0.001L-4.678,2.155L-0.674,2.155L-0.674,3.422L-4.678,3.422L-4.678,5.708L0,5.708Z" style="fill:rgb(178,142,92);fill-rule:nonzero;"/>
            </g>
            <g transform="matrix(4.16667,0,0,4.16667,1304.66,1049.21)">
                <path d="M0,-8.291L0,0L-1.54,0L-1.54,-3.554L-5.827,-3.554L-5.827,0L-7.367,0L-7.367,-8.291L-5.827,-8.291L-5.827,-4.868L-1.54,-4.868L-1.54,-8.291L0,-8.291Z" style="fill:rgb(178,142,92);fill-rule:nonzero;"/>
            </g>
            <g transform="matrix(4.16667,0,0,4.16667,1342.22,1021.35)">
                <path d="M0,5.08C0.442,4.831 0.789,4.485 1.042,4.038C1.295,3.592 1.421,3.092 1.421,2.54C1.421,1.988 1.295,1.488 1.042,1.041C0.789,0.595 0.442,0.248 0,-0.001C-0.443,-0.25 -0.94,-0.374 -1.492,-0.374C-2.045,-0.374 -2.543,-0.25 -2.984,-0.001C-3.427,0.248 -3.774,0.595 -4.026,1.041C-4.279,1.488 -4.405,1.988 -4.405,2.54C-4.405,3.092 -4.279,3.592 -4.026,4.038C-3.774,4.485 -3.427,4.831 -2.984,5.08C-2.543,5.329 -2.045,5.453 -1.492,5.453C-0.94,5.453 -0.443,5.329 0,5.08M-3.777,6.253C-4.458,5.886 -4.99,5.376 -5.377,4.726C-5.765,4.073 -5.958,3.346 -5.958,2.54C-5.958,1.734 -5.765,1.006 -5.377,0.354C-4.99,-0.296 -4.458,-0.806 -3.777,-1.173C-3.099,-1.54 -2.338,-1.724 -1.492,-1.724C-0.647,-1.724 0.114,-1.54 0.794,-1.173C1.473,-0.806 2.005,-0.299 2.393,0.349C2.779,0.996 2.973,1.726 2.973,2.54C2.973,3.353 2.779,4.083 2.393,4.731C2.005,5.379 1.473,5.886 0.794,6.253C0.114,6.62 -0.647,6.804 -1.492,6.804C-2.338,6.804 -3.099,6.62 -3.777,6.253" style="fill:rgb(178,142,92);fill-rule:nonzero;"/>
            </g>
            <g transform="matrix(4.16667,0,0,4.16667,1398.04,1049.21)">
                <path d="M0,-8.291L0,0L-1.268,0L-5.84,-5.615L-5.84,0L-7.367,0L-7.367,-8.291L-6.101,-8.291L-1.529,-2.677L-1.529,-8.291L0,-8.291Z" style="fill:rgb(178,142,92);fill-rule:nonzero;"/>
            </g>
            <g transform="matrix(4.16667,0,0,4.16667,1439.14,1020.04)">
                <path d="M0,5.708L0,7L-6.218,7L-6.218,-1.292L-0.165,-1.292L-0.165,-0.001L-4.678,-0.001L-4.678,2.155L-0.675,2.155L-0.675,3.422L-4.678,3.422L-4.678,5.708L0,5.708Z" style="fill:rgb(178,142,92);fill-rule:nonzero;"/>
            </g>
            <g transform="matrix(4.16667,0,0,4.16667,1455.22,1015.3)">
                <path d="M0,7.984C-0.598,7.802 -1.068,7.561 -1.417,7.261L-0.883,6.065C-0.543,6.334 -0.128,6.552 0.367,6.722C0.86,6.892 1.354,6.977 1.853,6.977C2.468,6.977 2.929,6.879 3.232,6.681C3.536,6.484 3.688,6.223 3.688,5.899C3.688,5.663 3.604,5.466 3.434,5.313C3.264,5.158 3.049,5.039 2.789,4.951C2.528,4.865 2.173,4.766 1.722,4.655C1.091,4.506 0.579,4.355 0.188,4.205C-0.202,4.055 -0.537,3.82 -0.818,3.501C-1.1,3.181 -1.238,2.749 -1.238,2.203C-1.238,1.746 -1.114,1.329 -0.865,0.954C-0.616,0.579 -0.242,0.281 0.26,0.06C0.761,-0.161 1.375,-0.272 2.101,-0.272C2.607,-0.272 3.104,-0.209 3.594,-0.082C4.084,0.045 4.507,0.226 4.86,0.463L4.375,1.659C4.012,1.445 3.633,1.284 3.237,1.173C2.844,1.063 2.461,1.007 2.089,1.007C1.481,1.007 1.029,1.11 0.732,1.315C0.437,1.521 0.289,1.793 0.289,2.132C0.289,2.37 0.374,2.564 0.544,2.713C0.714,2.863 0.929,2.982 1.189,3.068C1.449,3.155 1.806,3.254 2.256,3.364C2.87,3.506 3.377,3.654 3.771,3.809C4.165,3.962 4.504,4.198 4.784,4.513C5.063,4.829 5.204,5.256 5.204,5.793C5.204,6.251 5.08,6.665 4.831,7.036C4.582,7.407 4.205,7.704 3.7,7.925C3.195,8.146 2.579,8.256 1.853,8.256C1.213,8.256 0.595,8.166 0,7.984" style="fill:rgb(178,142,92);fill-rule:nonzero;"/>
            </g>
            <g transform="matrix(4.16667,0,0,4.16667,1495.7,1043.78)">
                <path d="M0,-5.685L-2.748,-5.685L-2.748,-6.988L4.287,-6.988L4.287,-5.685L1.541,-5.685L1.541,1.303L0,1.303L0,-5.685Z" style="fill:rgb(178,142,92);fill-rule:nonzero;"/>
            </g>
            <g transform="matrix(4.16667,0,0,4.16667,-1267.76,-3330.99)">
                <rect x="670.101" y="1042.96" width="1.539" height="8.291" style="fill:rgb(178,142,92);"/>
            </g>
            <g transform="matrix(4.16667,0,0,4.16667,1560.79,1020.09)">
                <path d="M0,5.685C0.608,5.685 1.143,5.569 1.605,5.336C2.067,5.102 2.423,4.771 2.672,4.341C2.919,3.911 3.043,3.411 3.043,2.843C3.043,2.274 2.919,1.774 2.672,1.344C2.423,0.914 2.067,0.582 1.605,0.349C1.143,0.117 0.608,0 0,0L-2.014,0L-2.014,5.685L0,5.685ZM-3.553,-1.303L0.071,-1.303C0.955,-1.303 1.741,-1.131 2.429,-0.788C3.115,-0.444 3.647,0.041 4.026,0.669C4.405,1.297 4.596,2.022 4.596,2.843C4.596,3.664 4.405,4.389 4.026,5.017C3.647,5.644 3.115,6.129 2.429,6.473C1.741,6.816 0.955,6.988 0.071,6.988L-3.553,6.988L-3.553,-1.303Z" style="fill:rgb(178,142,92);fill-rule:nonzero;"/>
            </g>
            <g transform="matrix(4.16667,0,0,4.16667,1612.46,1027.69)">
                <path d="M0,2.037L-1.563,-1.588L-3.115,2.037L0,2.037ZM0.51,3.245L-3.636,3.245L-4.454,5.164L-6.04,5.164L-2.31,-3.127L-0.794,-3.127L2.949,5.164L1.338,5.164L0.51,3.245Z" style="fill:rgb(178,142,92);fill-rule:nonzero;"/>
            </g>
            <g transform="matrix(4.16667,0,0,4.16667,1649.87,1020.09)">
                <path d="M0,5.685C0.608,5.685 1.143,5.569 1.605,5.336C2.067,5.102 2.423,4.771 2.672,4.341C2.919,3.911 3.044,3.411 3.044,2.843C3.044,2.274 2.919,1.774 2.672,1.344C2.423,0.914 2.067,0.582 1.605,0.349C1.143,0.117 0.608,0 0,0L-2.014,0L-2.014,5.685L0,5.685ZM-3.553,-1.303L0.071,-1.303C0.955,-1.303 1.741,-1.131 2.429,-0.788C3.115,-0.444 3.647,0.041 4.026,0.669C4.405,1.297 4.596,2.022 4.596,2.843C4.596,3.664 4.405,4.389 4.026,5.017C3.647,5.644 3.115,6.129 2.429,6.473C1.741,6.816 0.955,6.988 0.071,6.988L-3.553,6.988L-3.553,-1.303Z" style="fill:rgb(178,142,92);fill-rule:nonzero;"/>
            </g>
            <g transform="matrix(4.16667,0,0,4.16667,771.972,1103)">
                <path d="M0,-5.684L-2.748,-5.684L-2.748,-6.987L4.287,-6.987L4.287,-5.684L1.541,-5.684L1.541,1.303L0,1.303L0,-5.684Z" style="fill:rgb(178,142,92);fill-rule:nonzero;"/>
            </g>
            <g transform="matrix(4.16667,0,0,4.16667,820.882,1101.22)">
                <path d="M0,-4.833C-0.349,-5.117 -0.857,-5.259 -1.527,-5.259L-3.329,-5.259L-3.329,-1.955L-1.527,-1.955C-0.857,-1.955 -0.349,-2.099 0,-2.387C0.347,-2.675 0.521,-3.084 0.521,-3.613C0.521,-4.142 0.347,-4.549 0,-4.833M0.556,1.729L-1.137,-0.7C-1.209,-0.691 -1.315,-0.688 -1.457,-0.688L-3.329,-0.688L-3.329,1.729L-4.868,1.729L-4.868,-6.562L-1.457,-6.562C-0.739,-6.562 -0.112,-6.443 0.42,-6.207C0.952,-5.97 1.362,-5.631 1.646,-5.188C1.93,-4.746 2.072,-4.221 2.072,-3.613C2.072,-2.99 1.92,-2.453 1.617,-2.002C1.312,-1.552 0.876,-1.216 0.308,-0.995L2.214,1.729L0.556,1.729Z" style="fill:rgb(178,142,92);fill-rule:nonzero;"/>
            </g>
            <g transform="matrix(4.16667,0,0,4.16667,862.878,1086.91)">
                <path d="M0,2.037L-1.564,-1.588L-3.115,2.037L0,2.037ZM0.509,3.245L-3.637,3.245L-4.454,5.164L-6.041,5.164L-2.311,-3.127L-0.795,-3.127L2.948,5.164L1.337,5.164L0.509,3.245Z" style="fill:rgb(178,142,92);fill-rule:nonzero;"/>
            </g>
            <g transform="matrix(4.16667,0,0,4.16667,916.174,1108.43)">
                <path d="M0,-8.291L0,0L-1.267,0L-5.84,-5.615L-5.84,0L-7.367,0L-7.367,-8.291L-6.1,-8.291L-1.528,-2.677L-1.528,-8.291L0,-8.291Z" style="fill:rgb(178,142,92);fill-rule:nonzero;"/>
            </g>
            <g transform="matrix(4.16667,0,0,4.16667,934.362,1074.52)">
                <path d="M0,7.984C-0.597,7.802 -1.068,7.561 -1.416,7.261L-0.882,6.065C-0.543,6.333 -0.127,6.552 0.367,6.722C0.86,6.892 1.355,6.976 1.853,6.976C2.469,6.976 2.93,6.879 3.232,6.681C3.537,6.484 3.688,6.223 3.688,5.899C3.688,5.662 3.604,5.466 3.435,5.313C3.265,5.158 3.05,5.038 2.789,4.951C2.528,4.865 2.173,4.766 1.723,4.655C1.092,4.506 0.579,4.355 0.188,4.205C-0.202,4.055 -0.537,3.82 -0.818,3.501C-1.099,3.181 -1.238,2.748 -1.238,2.203C-1.238,1.746 -1.113,1.329 -0.865,0.954C-0.616,0.579 -0.241,0.28 0.261,0.06C0.761,-0.162 1.375,-0.272 2.102,-0.272C2.607,-0.272 3.105,-0.209 3.594,-0.082C4.084,0.044 4.507,0.226 4.861,0.463L4.375,1.659C4.013,1.445 3.633,1.284 3.238,1.173C2.845,1.063 2.461,1.007 2.09,1.007C1.482,1.007 1.03,1.11 0.733,1.315C0.437,1.521 0.29,1.793 0.29,2.132C0.29,2.369 0.375,2.563 0.544,2.713C0.714,2.863 0.929,2.982 1.189,3.068C1.45,3.155 1.806,3.254 2.256,3.364C2.871,3.506 3.377,3.654 3.772,3.809C4.166,3.962 4.504,4.198 4.785,4.513C5.064,4.829 5.205,5.255 5.205,5.793C5.205,6.251 5.08,6.665 4.832,7.036C4.583,7.407 4.205,7.704 3.7,7.924C3.195,8.146 2.58,8.256 1.853,8.256C1.213,8.256 0.596,8.165 0,7.984" style="fill:rgb(178,142,92);fill-rule:nonzero;"/>
            </g>
            <g transform="matrix(4.16667,0,0,4.16667,988.622,1091.06)">
                <path d="M0,0.047C0.348,-0.237 0.521,-0.644 0.521,-1.173C0.521,-1.702 0.348,-2.109 0,-2.393C-0.348,-2.677 -0.857,-2.819 -1.527,-2.819L-3.328,-2.819L-3.328,0.473L-1.527,0.473C-0.857,0.473 -0.348,0.331 0,0.047M0.42,-3.767C0.953,-3.53 1.362,-3.191 1.646,-2.748C1.931,-2.306 2.072,-1.781 2.072,-1.173C2.072,-0.573 1.931,-0.05 1.646,0.397C1.362,0.843 0.953,1.184 0.42,1.421C-0.112,1.658 -0.738,1.776 -1.457,1.776L-3.328,1.776L-3.328,4.169L-4.868,4.169L-4.868,-4.122L-1.457,-4.122C-0.738,-4.122 -0.112,-4.003 0.42,-3.767" style="fill:rgb(178,142,92);fill-rule:nonzero;"/>
            </g>
            <g transform="matrix(4.16667,0,0,4.16667,1028.16,1086.91)">
                <path d="M0,2.037L-1.564,-1.588L-3.115,2.037L0,2.037ZM0.509,3.245L-3.637,3.245L-4.454,5.164L-6.04,5.164L-2.311,-3.127L-0.795,-3.127L2.948,5.164L1.337,5.164L0.509,3.245Z" style="fill:rgb(178,142,92);fill-rule:nonzero;"/>
            </g>
            <g transform="matrix(4.16667,0,0,4.16667,1071.04,1101.22)">
                <path d="M0,-4.833C-0.348,-5.117 -0.857,-5.259 -1.527,-5.259L-3.328,-5.259L-3.328,-1.955L-1.527,-1.955C-0.857,-1.955 -0.348,-2.099 0,-2.387C0.347,-2.675 0.521,-3.084 0.521,-3.613C0.521,-4.142 0.347,-4.549 0,-4.833M0.557,1.729L-1.137,-0.7C-1.208,-0.691 -1.315,-0.688 -1.457,-0.688L-3.328,-0.688L-3.328,1.729L-4.868,1.729L-4.868,-6.562L-1.457,-6.562C-0.738,-6.562 -0.112,-6.443 0.42,-6.207C0.953,-5.97 1.362,-5.631 1.646,-5.188C1.931,-4.746 2.072,-4.221 2.072,-3.613C2.072,-2.99 1.92,-2.453 1.617,-2.002C1.312,-1.552 0.877,-1.216 0.308,-0.995L2.214,1.729L0.557,1.729Z" style="fill:rgb(178,142,92);fill-rule:nonzero;"/>
            </g>
            <g transform="matrix(4.16667,0,0,4.16667,1118.66,1079.26)">
                <path d="M0,5.709L0,7L-6.218,7L-6.218,-1.291L-0.166,-1.291L-0.166,0L-4.679,0L-4.679,2.156L-0.675,2.156L-0.675,3.423L-4.679,3.423L-4.679,5.709L0,5.709Z" style="fill:rgb(178,142,92);fill-rule:nonzero;"/>
            </g>
            <g transform="matrix(4.16667,0,0,4.16667,1162.43,1108.43)">
                <path d="M0,-8.291L0,0L-1.268,0L-5.84,-5.615L-5.84,0L-7.367,0L-7.367,-8.291L-6.101,-8.291L-1.529,-2.677L-1.529,-8.291L0,-8.291Z" style="fill:rgb(178,142,92);fill-rule:nonzero;"/>
            </g>
            <g transform="matrix(4.16667,0,0,4.16667,1184.17,1075.68)">
                <path d="M0,7.426C-0.675,7.059 -1.205,6.551 -1.587,5.904C-1.97,5.257 -2.162,4.527 -2.162,3.713C-2.162,2.899 -1.969,2.169 -1.581,1.522C-1.194,0.874 -0.663,0.367 0.012,0C0.687,-0.367 1.443,-0.551 2.28,-0.551C2.96,-0.551 3.579,-0.432 4.139,-0.196C4.701,0.041 5.174,0.385 5.562,0.835L4.566,1.77C3.967,1.123 3.228,0.799 2.351,0.799C1.783,0.799 1.274,0.923 0.823,1.172C0.373,1.421 0.021,1.767 -0.23,2.209C-0.483,2.651 -0.609,3.153 -0.609,3.713C-0.609,4.273 -0.483,4.775 -0.23,5.217C0.021,5.659 0.373,6.005 0.823,6.253C1.274,6.502 1.783,6.626 2.351,6.626C3.228,6.626 3.967,6.299 4.566,5.644L5.562,6.591C5.174,7.041 4.698,7.384 4.133,7.621C3.568,7.858 2.948,7.977 2.268,7.977C1.431,7.977 0.676,7.793 0,7.426" style="fill:rgb(178,142,92);fill-rule:nonzero;"/>
            </g>
            <g transform="matrix(4.16667,0,0,4.16667,-1267.76,-3212.55)">
                <rect x="596.927" y="1028.74" width="1.539" height="8.291" style="fill:rgb(178,142,92);"/>
            </g>
            <g transform="matrix(4.16667,0,0,4.16667,1261.38,1086.91)">
                <path d="M0,2.037L-1.563,-1.588L-3.115,2.037L0,2.037ZM0.51,3.245L-3.636,3.245L-4.454,5.164L-6.04,5.164L-2.311,-3.127L-0.794,-3.127L2.949,5.164L1.338,5.164L0.51,3.245Z" style="fill:rgb(178,142,92);fill-rule:nonzero;"/>
            </g>
            <g transform="matrix(4.16667,0,0,4.16667,1318.43,1086.07)">
                <path d="M0,2.439L0,5.365L-1.539,5.365L-1.539,2.463L-4.797,-2.926L-3.15,-2.926L-0.722,1.113L1.729,-2.926L3.245,-2.926L0,2.439Z" style="fill:rgb(178,142,92);fill-rule:nonzero;"/>
            </g>
            <g transform="matrix(4.16667,0,0,4.16667,1368.02,1103.05)">
                <path d="M0,-5.709L0,-3.186L4.004,-3.186L4.004,-1.883L0,-1.883L0,1.291L-1.539,1.291L-1.539,-7L4.513,-7L4.513,-5.709L0,-5.709Z" style="fill:rgb(178,142,92);fill-rule:nonzero;"/>
            </g>
            <g transform="matrix(4.16667,0,0,4.16667,1402.67,1077.91)">
                <path d="M0,6.477C-0.64,5.834 -0.96,4.912 -0.96,3.711L-0.96,-0.966L0.581,-0.966L0.581,3.652C0.581,5.279 1.283,6.092 2.688,6.092C4.087,6.092 4.785,5.279 4.785,3.652L4.785,-0.966L6.301,-0.966L6.301,3.711C6.301,4.912 5.983,5.834 5.348,6.477C4.712,7.121 3.822,7.443 2.676,7.443C1.532,7.443 0.64,7.121 0,6.477" style="fill:rgb(178,142,92);fill-rule:nonzero;"/>
            </g>
            <g transform="matrix(4.16667,0,0,4.16667,1474.53,1108.43)">
                <path d="M0,-8.291L0,0L-1.268,0L-5.84,-5.615L-5.84,0L-7.368,0L-7.368,-8.291L-6.101,-8.291L-1.529,-2.677L-1.529,-8.291L0,-8.291Z" style="fill:rgb(178,142,92);fill-rule:nonzero;"/>
            </g>
            <g transform="matrix(4.16667,0,0,4.16667,1496.26,1075.68)">
                <path d="M0,7.426C-0.674,7.059 -1.204,6.551 -1.586,5.904C-1.969,5.257 -2.161,4.527 -2.161,3.713C-2.161,2.899 -1.968,2.169 -1.58,1.522C-1.193,0.874 -0.662,0.367 0.012,0C0.688,-0.367 1.444,-0.551 2.281,-0.551C2.961,-0.551 3.579,-0.432 4.14,-0.196C4.702,0.041 5.175,0.385 5.562,0.835L4.567,1.77C3.967,1.123 3.229,0.799 2.352,0.799C1.784,0.799 1.274,0.923 0.824,1.172C0.373,1.421 0.022,1.767 -0.229,2.209C-0.482,2.651 -0.608,3.153 -0.608,3.713C-0.608,4.273 -0.482,4.775 -0.229,5.217C0.022,5.659 0.373,6.005 0.824,6.253C1.274,6.502 1.784,6.626 2.352,6.626C3.229,6.626 3.967,6.299 4.567,5.644L5.562,6.591C5.175,7.041 4.699,7.384 4.134,7.621C3.569,7.858 2.949,7.977 2.269,7.977C1.432,7.977 0.677,7.793 0,7.426" style="fill:rgb(178,142,92);fill-rule:nonzero;"/>
            </g>
            <g transform="matrix(4.16667,0,0,4.16667,-1267.76,-3212.55)">
                <rect x="671.829" y="1028.74" width="1.539" height="8.291" style="fill:rgb(178,142,92);"/>
            </g>
            <g transform="matrix(4.16667,0,0,4.16667,1571.85,1108.92)">
                <path d="M0,-10.707L1.739,-10.707L-0.321,-9.084L-1.6,-9.084L0,-10.707ZM0.888,-1.724C1.33,-1.972 1.677,-2.319 1.93,-2.766C2.183,-3.212 2.309,-3.711 2.309,-4.264C2.309,-4.816 2.183,-5.316 1.93,-5.762C1.677,-6.208 1.33,-6.556 0.888,-6.805C0.444,-7.054 -0.053,-7.178 -0.604,-7.178C-1.158,-7.178 -1.655,-7.054 -2.098,-6.805C-2.539,-6.556 -2.888,-6.208 -3.139,-5.762C-3.393,-5.316 -3.519,-4.816 -3.519,-4.264C-3.519,-3.711 -3.393,-3.212 -3.139,-2.766C-2.888,-2.319 -2.539,-1.972 -2.098,-1.724C-1.655,-1.475 -1.158,-1.351 -0.604,-1.351C-0.053,-1.351 0.444,-1.475 0.888,-1.724M-2.891,-0.551C-3.57,-0.918 -4.104,-1.427 -4.489,-2.079C-4.878,-2.73 -5.07,-3.458 -5.07,-4.264C-5.07,-5.069 -4.878,-5.798 -4.489,-6.449C-4.104,-7.101 -3.57,-7.609 -2.891,-7.977C-2.211,-8.344 -1.45,-8.528 -0.604,-8.528C0.239,-8.528 1.002,-8.344 1.681,-7.977C2.359,-7.609 2.893,-7.103 3.28,-6.455C3.666,-5.808 3.859,-5.078 3.859,-4.264C3.859,-3.45 3.666,-2.72 3.28,-2.073C2.893,-1.425 2.359,-0.918 1.681,-0.551C1.002,-0.184 0.239,0 -0.604,0C-1.45,0 -2.211,-0.184 -2.891,-0.551" style="fill:rgb(178,142,92);fill-rule:nonzero;"/>
            </g>
            <g transform="matrix(4.16667,0,0,4.16667,1631.36,1108.43)">
                <path d="M0,-8.291L0,0L-1.268,0L-5.84,-5.615L-5.84,0L-7.368,0L-7.368,-8.291L-6.101,-8.291L-1.529,-2.677L-1.529,-8.291L0,-8.291Z" style="fill:rgb(178,142,92);fill-rule:nonzero;"/>
            </g>
            <g transform="matrix(4.16667,0,0,4.16667,1686.38,1091.06)">
                <path d="M0,0.047C0.347,-0.237 0.521,-0.644 0.521,-1.173C0.521,-1.702 0.347,-2.109 0,-2.393C-0.348,-2.677 -0.857,-2.819 -1.527,-2.819L-3.328,-2.819L-3.328,0.473L-1.527,0.473C-0.857,0.473 -0.348,0.331 0,0.047M0.42,-3.767C0.953,-3.53 1.362,-3.191 1.646,-2.748C1.931,-2.306 2.072,-1.781 2.072,-1.173C2.072,-0.573 1.931,-0.05 1.646,0.397C1.362,0.843 0.953,1.184 0.42,1.421C-0.112,1.658 -0.738,1.776 -1.457,1.776L-3.328,1.776L-3.328,4.169L-4.868,4.169L-4.868,-4.122L-1.457,-4.122C-0.738,-4.122 -0.112,-4.003 0.42,-3.767" style="fill:rgb(178,142,92);fill-rule:nonzero;"/>
            </g>
            <g transform="matrix(4.16667,0,0,4.16667,1724.78,1108.92)">
                <path d="M0,-10.707L1.741,-10.707L-0.319,-9.084L-1.6,-9.084L0,-10.707ZM-3.293,-0.966C-3.933,-1.609 -4.253,-2.531 -4.253,-3.731L-4.253,-8.409L-2.712,-8.409L-2.712,-3.79C-2.712,-2.164 -2.01,-1.351 -0.604,-1.351C0.794,-1.351 1.492,-2.164 1.492,-3.79L1.492,-8.409L3.008,-8.409L3.008,-3.731C3.008,-2.531 2.69,-1.609 2.056,-0.966C1.419,-0.322 0.529,0 -0.616,0C-1.761,0 -2.653,-0.322 -3.293,-0.966" style="fill:rgb(178,142,92);fill-rule:nonzero;"/>
            </g>
            <g transform="matrix(4.16667,0,0,4.16667,1776.45,1083.9)">
                <path d="M0,3.483C0,2.686 -0.596,2.287 -1.788,2.287L-4.275,2.287L-4.275,4.679L-1.788,4.679C-0.596,4.679 0,4.28 0,3.483M-4.275,-1.196L-4.275,1.09L-2.095,1.09C-1.56,1.09 -1.147,0.993 -0.858,0.8C-0.57,0.607 -0.426,0.324 -0.426,-0.047C-0.426,-0.426 -0.57,-0.712 -0.858,-0.905C-1.147,-1.099 -1.56,-1.196 -2.095,-1.196L-4.275,-1.196ZM1.148,2.328C1.418,2.68 1.553,3.116 1.553,3.636C1.553,4.355 1.276,4.91 0.723,5.301C0.17,5.691 -0.635,5.887 -1.692,5.887L-5.814,5.887L-5.814,-2.404L-1.93,-2.404C-0.951,-2.404 -0.197,-2.212 0.332,-1.829C0.86,-1.446 1.125,-0.919 1.125,-0.248C1.125,0.162 1.03,0.525 0.842,0.842C0.651,1.157 0.391,1.402 0.061,1.576C0.519,1.726 0.881,1.977 1.148,2.328" style="fill:rgb(178,142,92);fill-rule:nonzero;"/>
            </g>
            <g transform="matrix(4.16667,0,0,4.16667,1795.7,1108.43)">
                <path d="M0,-8.291L1.539,-8.291L1.539,-1.303L5.874,-1.303L5.874,0L0,0L0,-8.291Z" style="fill:rgb(178,142,92);fill-rule:nonzero;"/>
            </g>
            <g transform="matrix(4.16667,0,0,4.16667,-1267.76,-3212.55)">
                <rect x="743.746" y="1028.74" width="1.539" height="8.291" style="fill:rgb(178,142,92);"/>
            </g>
            <g transform="matrix(4.16667,0,0,4.16667,1859.38,1075.68)">
                <path d="M0,7.426C-0.675,7.059 -1.204,6.551 -1.586,5.904C-1.97,5.257 -2.161,4.527 -2.161,3.713C-2.161,2.899 -1.968,2.169 -1.58,1.522C-1.194,0.874 -0.663,0.367 0.012,0C0.687,-0.367 1.444,-0.551 2.281,-0.551C2.96,-0.551 3.579,-0.432 4.14,-0.196C4.701,0.041 5.174,0.385 5.562,0.835L4.566,1.77C3.967,1.123 3.228,0.799 2.352,0.799C1.783,0.799 1.274,0.923 0.824,1.172C0.373,1.421 0.021,1.767 -0.229,2.209C-0.483,2.651 -0.608,3.153 -0.608,3.713C-0.608,4.273 -0.483,4.775 -0.229,5.217C0.021,5.659 0.373,6.005 0.824,6.253C1.274,6.502 1.783,6.626 2.352,6.626C3.228,6.626 3.967,6.299 4.566,5.644L5.562,6.591C5.174,7.041 4.698,7.384 4.134,7.621C3.568,7.858 2.948,7.977 2.268,7.977C1.431,7.977 0.676,7.793 0,7.426" style="fill:rgb(178,142,92);fill-rule:nonzero;"/>
            </g>
            <g transform="matrix(4.16667,0,0,4.16667,1914.19,1086.91)">
                <path d="M0,2.037L-1.564,-1.588L-3.115,2.037L0,2.037ZM0.51,3.245L-3.636,3.245L-4.454,5.164L-6.04,5.164L-2.311,-3.127L-0.794,-3.127L2.948,5.164L1.338,5.164L0.51,3.245Z" style="fill:rgb(178,142,92);fill-rule:nonzero;"/>
            </g>
        </g>
        <g transform="matrix(1,0,0,1,-128.716,50.6455)">
            <g transform="matrix(0,-4.16667,-4.16667,0,363.255,967.316)">
                <ellipse cx="-0.303" cy="0" rx="0.302" ry="0.303" style="fill:none;stroke:rgb(239,61,62);stroke-width:0.24px;"/>
            </g>
            <g transform="matrix(4.16667,0,0,4.16667,428.002,969.838)">
                <path d="M0,-24.333C0,-24.333 -6.672,-24.239 -10.894,-21.82C-16.768,-18.458 -21.463,-12.25 -21.357,-3.595L-21.345,0L-15.536,0C-15.371,0 -15.238,-0.133 -15.238,-0.298L-15.238,-1.751C-15.238,-2.11 -15.243,-2.47 -15.249,-2.827C-15.266,-3.935 -15.123,-7.905 -12.521,-11.621C-12.521,-11.621 -9.333,-16.688 -2.979,-17.977C-2.979,-17.977 -1.658,-18.238 0,-18.258L0,-24.333Z" style="fill:rgb(240,88,107);fill-rule:nonzero;"/>
            </g>
            <g transform="matrix(4.16667,0,0,4.16667,631.103,867.949)">
                <path d="M0,21.462C0,21.462 -0.095,14.79 -2.513,10.567C-5.876,4.694 -12.083,0 -20.738,0.104L-24.334,0.116L-24.334,5.924C-24.334,6.09 -24.2,6.224 -24.035,6.224L-22.582,6.224C-22.223,6.224 -21.863,6.218 -21.506,6.213C-20.398,6.197 -16.428,6.337 -12.711,8.941C-12.711,8.941 -7.645,12.129 -6.356,18.482C-6.356,18.482 -6.096,19.802 -6.073,21.462L0,21.462Z" style="fill:rgb(0,183,170);fill-rule:nonzero;"/>
            </g>
            <g transform="matrix(4.16667,0,0,4.16667,542.183,1059.28)">
                <path d="M0,24.334C0,24.334 6.672,24.238 10.894,21.821C16.768,18.459 21.463,12.251 21.357,3.596L21.346,0L15.536,0C15.371,0 15.238,0.134 15.238,0.299L15.238,1.752C15.238,2.111 15.242,2.471 15.249,2.828C15.265,3.936 15.123,7.906 12.521,11.622C12.521,11.622 9.333,16.689 2.979,17.978C2.979,17.978 1.658,18.238 0,18.259L0,24.334Z" style="fill:rgb(88,121,180);fill-rule:nonzero;"/>
            </g>
            <g transform="matrix(4.16667,0,0,4.16667,339.082,1161.12)">
                <path d="M0,-21.462C0,-21.462 0.096,-14.79 2.513,-10.568C5.876,-4.694 12.084,0 20.738,-0.104L24.335,-0.116L24.335,-5.926C24.335,-6.09 24.2,-6.224 24.035,-6.224L22.582,-6.224C22.223,-6.224 21.863,-6.219 21.506,-6.214C20.398,-6.197 16.428,-6.339 12.712,-8.943C12.712,-8.943 7.645,-12.129 6.356,-18.483C6.356,-18.483 6.096,-19.804 6.075,-21.462L0,-21.462Z" style="fill:rgb(90,186,76);fill-rule:nonzero;"/>
            </g>
            <g transform="matrix(4.16667,0,0,4.16667,440.901,969.842)">
                <path d="M0,-24.339L0,-12.962C0,-11.799 -0.509,-10.771 -1.315,-10.068C-1.787,-9.656 -2.528,-9.393 -3.061,-9.245C-3.375,-9.158 -3.698,-9.111 -4.023,-9.075C-4.273,-9.048 -4.507,-8.99 -4.769,-8.92C-5.657,-8.68 -6.522,-8.225 -7.202,-7.604C-7.202,-7.604 -9.136,-6.028 -9.261,-3.638C-9.375,-1.434 -11.075,0 -13.187,0L-15.314,0C-15.597,-6.255 -14.178,-9.921 -9.848,-13.131C-7.501,-14.87 -4.994,-15.084 -3.825,-15.153C-3.414,-15.177 -3.096,-15.52 -3.096,-15.931L-3.096,-24.335L0,-24.339Z" style="fill:rgb(0,158,215);fill-rule:nonzero;"/>
            </g>
            <g transform="matrix(4.16667,0,0,4.16667,631.123,905.288)">
                <path d="M0,15.596L-11.377,15.596C-12.54,15.596 -13.568,15.089 -14.271,14.281C-14.683,13.809 -14.946,13.068 -15.095,12.535C-15.182,12.221 -15.228,11.898 -15.264,11.573C-15.291,11.323 -15.349,11.091 -15.419,10.828C-15.659,9.939 -16.114,9.074 -16.735,8.394C-16.735,8.394 -18.311,6.461 -20.701,6.337C-22.905,6.221 -24.339,4.521 -24.339,2.409L-24.339,0.282C-18.085,0 -14.418,1.419 -11.208,5.75C-9.469,8.095 -9.255,10.602 -9.187,11.771C-9.162,12.182 -8.819,12.501 -8.408,12.501L-0.005,12.501L0,15.596Z" style="fill:rgb(139,75,154);fill-rule:nonzero;"/>
            </g>
            <g transform="matrix(4.16667,0,0,4.16667,529.284,1059.28)">
                <path d="M0,24.339L0,12.962C0,11.799 0.509,10.771 1.315,10.068C1.787,9.657 2.528,9.393 3.061,9.244C3.375,9.158 3.698,9.112 4.023,9.075C4.272,9.049 4.505,8.99 4.769,8.92C5.657,8.68 6.522,8.225 7.202,7.604C7.202,7.604 9.136,6.029 9.26,3.638C9.375,1.434 11.075,0 13.187,0L15.314,0C15.596,6.254 14.178,9.921 9.848,13.131C7.501,14.87 4.994,15.084 3.825,15.153C3.414,15.177 3.095,15.52 3.095,15.931L3.095,24.335L0,24.339Z" style="fill:rgb(246,195,88);fill-rule:nonzero;"/>
            </g>
            <g transform="matrix(4.16667,0,0,4.16667,339.062,1123.78)">
                <path d="M0,-15.596L11.377,-15.596C12.54,-15.596 13.568,-15.089 14.271,-14.281C14.684,-13.809 14.946,-13.069 15.095,-12.535C15.182,-12.221 15.228,-11.898 15.264,-11.574C15.291,-11.324 15.35,-11.092 15.42,-10.828C15.659,-9.939 16.114,-9.074 16.735,-8.395C16.735,-8.395 18.311,-6.461 20.701,-6.337C22.905,-6.221 24.339,-4.521 24.339,-2.41L24.339,-0.282C18.085,0 14.418,-1.419 11.208,-5.749C9.469,-8.096 9.255,-10.602 9.187,-11.771C9.162,-12.182 8.819,-12.501 8.408,-12.501L0.005,-12.501L0,-15.596Z" style="fill:rgb(246,139,57);fill-rule:nonzero;"/>
            </g>
            <g transform="matrix(4.16667,0,0,4.16667,-1267.76,-3441.8)">
                <rect x="403.905" y="1058.87" width="15.266" height="3.053" style="fill:rgb(169,0,68);"/>
            </g>
            <g transform="matrix(4.16667,0,0,4.16667,415.181,944.724)">
                <path d="M0,3.054L15.265,3.054L15.265,0L2.62,0C1.173,0 0,1.173 0,2.62L0,3.054Z" style="fill:rgb(169,0,68);fill-rule:nonzero;"/>
            </g>
            <g transform="matrix(4.16667,0,0,4.16667,-1267.76,-3390.92)">
                <rect x="403.905" y="1052.77" width="15.266" height="3.053" style="fill:rgb(169,0,68);"/>
            </g>
            <g transform="matrix(4.16667,0,0,4.16667,-1267.76,-3404.33)">
                <rect x="446.579" y="1052.85" width="3.053" height="6.106" style="fill:rgb(169,0,68);"/>
            </g>
            <g transform="matrix(4.16667,0,0,4.16667,567.545,1046.15)">
                <path d="M0,-15.265L0,0L15.265,0L15.265,-15.265L12.212,-15.265L12.212,-6.106L3.053,-6.106L3.053,-15.265L0,-15.265Z" style="fill:rgb(169,0,68);fill-rule:nonzero;"/>
            </g>
            <g transform="matrix(4.16667,0,0,4.16667,507.82,982.888)">
                <path d="M0,-3.053L1.792,-6.106L2.156,-6.724L3.539,-9.078C3.565,-9.125 3.609,-9.15 3.654,-9.159L-3.95,-9.159L-3.95,6.106L3.654,6.106C3.609,6.098 3.565,6.072 3.539,6.027L2.156,3.673L1.792,3.053L0,-0L-0.848,-1.443C-0.878,-1.494 -0.878,-1.559 -0.848,-1.612L0,-3.053Z" style="fill:rgb(169,0,68);fill-rule:nonzero;"/>
            </g>
            <g transform="matrix(4.16667,0,0,4.16667,538.512,970.168)">
                <path d="M0,3.053L-1.793,6.106L-2.157,6.725L-3.54,9.079C-3.566,9.124 -3.608,9.151 -3.655,9.159L3.949,9.159L3.949,-3.467C3.949,-4.924 2.767,-6.106 1.31,-6.106L-3.655,-6.106C-3.608,-6.099 -3.566,-6.072 -3.54,-6.026L-2.157,-3.671L-1.793,-3.053L0,0L0.847,1.441C0.877,1.493 0.877,1.559 0.847,1.612L0,3.053Z" style="fill:rgb(169,0,68);fill-rule:nonzero;"/>
            </g>
            <g transform="matrix(4.16667,0,0,4.16667,492.325,896.752)">
                <path d="M0,-6.127L0.832,-5.37L1.958,-5.316C2.271,-5.301 2.568,-5.232 2.841,-5.117C3.46,-4.855 3.956,-4.36 4.216,-3.742C4.331,-3.468 4.401,-3.17 4.417,-2.858L4.469,-1.731L5.227,-0.899C5.289,-0.832 5.348,-0.76 5.4,-0.689C5.698,-0.283 5.862,0.188 5.894,0.667L5.894,-6.794L-1.563,-6.794C-1.086,-6.762 -0.616,-6.597 -0.212,-6.301C-0.139,-6.247 -0.068,-6.189 0,-6.127" style="fill:rgb(169,0,68);fill-rule:nonzero;"/>
            </g>
            <g transform="matrix(4.16667,0,0,4.16667,456.062,874.952)">
                <path d="M0,4.332L0.757,3.5L0.811,2.374C0.824,2.061 0.895,1.764 1.01,1.49C1.271,0.872 1.768,0.376 2.386,0.116C2.659,-0.001 2.955,-0.069 3.269,-0.085L4.394,-0.137L5.226,-0.896C5.295,-0.957 5.365,-1.015 5.438,-1.068C5.843,-1.366 6.312,-1.53 6.79,-1.562L-0.668,-1.562L-0.668,5.894C-0.635,5.418 -0.47,4.949 -0.174,4.544C-0.12,4.471 -0.062,4.401 0,4.332" style="fill:rgb(169,0,68);fill-rule:nonzero;"/>
            </g>
            <g transform="matrix(4.16667,0,0,4.16667,516.886,932.049)">
                <path d="M0,-7.462C-0.031,-6.983 -0.196,-6.511 -0.494,-6.106C-0.548,-6.033 -0.606,-5.962 -0.668,-5.895L-1.425,-5.063L-1.479,-3.936C-1.492,-3.625 -1.562,-3.327 -1.678,-3.053C-1.939,-2.435 -2.435,-1.94 -3.053,-1.677C-3.327,-1.562 -3.625,-1.493 -3.937,-1.479L-5.062,-1.426L-5.894,-0.667C-5.963,-0.606 -6.033,-0.547 -6.106,-0.494C-6.51,-0.197 -6.98,-0.033 -7.458,0L0,0L0,-7.462Z" style="fill:rgb(169,0,68);fill-rule:nonzero;"/>
            </g>
            <g transform="matrix(4.16667,0,0,4.16667,478.722,903.029)">
                <path d="M0,6.471C-0.073,6.417 -0.144,6.359 -0.213,6.297L-1.045,5.54L-2.17,5.486C-2.481,5.471 -2.779,5.402 -3.054,5.287C-3.672,5.025 -4.167,4.53 -4.429,3.912C-4.544,3.638 -4.614,3.34 -4.628,3.029L-4.682,1.902L-5.438,1.07C-5.5,1.001 -5.559,0.932 -5.612,0.859C-5.909,0.454 -6.073,-0.015 -6.106,-0.494L-6.106,6.965L1.352,6.965C0.874,6.932 0.403,6.767 0,6.471" style="fill:rgb(169,0,68);fill-rule:nonzero;"/>
            </g>
            <g transform="matrix(0,4.16667,4.16667,0,485.081,893.883)">
                <path d="M1.527,-1.526C2.369,-1.526 3.053,-0.842 3.053,0C3.053,0.843 2.369,1.527 1.527,1.527C0.684,1.527 0,0.843 0,0C0,-0.842 0.684,-1.526 1.527,-1.526" style="fill:rgb(169,0,68);fill-rule:nonzero;"/>
            </g>
            <g transform="matrix(4.16667,0,0,4.16667,371.276,998.702)">
                <path d="M0,7.639L-3.171,3.797L0,-0.041L-2.953,-3.813L-7.731,-3.813L-7.731,11.452L-3.148,11.452L0,7.639Z" style="fill:rgb(169,0,68);fill-rule:nonzero;"/>
            </g>
            <g transform="matrix(4.16667,0,0,4.16667,402.571,982.818)">
                <path d="M0,15.265L0,0L-7.453,0L-4.339,3.769L-7.512,7.61L-4.339,11.452L-7.489,15.265L0,15.265Z" style="fill:rgb(169,0,68);fill-rule:nonzero;"/>
            </g>
            <g transform="matrix(4.16667,0,0,4.16667,504.081,1033.63)">
                <path d="M0,0L-3.053,0L-3.053,3.053L3.054,3.053L3.054,-3.053L0,-3.053L0,0Z" style="fill:rgb(169,0,68);fill-rule:nonzero;"/>
            </g>
            <g transform="matrix(4.16667,0,0,4.16667,529.524,1046.35)">
                <path d="M0,-6.106L0,0L6.106,0L6.106,-3.053L3.054,-3.053L3.054,-6.106L0,-6.106Z" style="fill:rgb(169,0,68);fill-rule:nonzero;"/>
            </g>
            <g transform="matrix(4.16667,0,0,4.16667,-1267.76,-3289.43)">
                <rect x="428.295" y="1040.59" width="3.054" height="3.053" style="fill:rgb(169,0,68);"/>
            </g>
            <g transform="matrix(4.16667,0,0,4.16667,516.804,1059.07)">
                <path d="M0,6.106L0,0L-6.106,0L-6.106,3.053L-3.053,3.053L-3.053,6.106L0,6.106Z" style="fill:rgb(169,0,68);fill-rule:nonzero;"/>
            </g>
            <g transform="matrix(4.16667,0,0,4.16667,542.248,1071.79)">
                <path d="M0,0L3.053,0L3.053,-3.053L-3.053,-3.053L-3.053,3.053L0,3.053L0,0Z" style="fill:rgb(169,0,68);fill-rule:nonzero;"/>
            </g>
            <g transform="matrix(4.16667,0,0,4.16667,478.784,1020.98)">
                <path d="M0,8.455L0,-0.016L-15.265,-0.016L-15.265,5.079L-13.566,5.079L-13.566,6.761L-11.872,6.761L-11.872,8.471L-6.785,8.471L-6.785,5.079L-8.479,5.079L-8.479,6.773L-10.175,6.773L-10.175,3.383L-5.087,3.383L-5.087,5.079L-3.393,5.079L-3.393,6.761L-1.693,6.761L-1.693,8.455L0,8.455Z" style="fill:rgb(169,0,68);fill-rule:nonzero;"/>
            </g>
            <g transform="matrix(4.16667,0,0,4.16667,426.334,1063.29)">
                <path d="M0,5.094L12.588,5.094L12.588,0L-2.678,0L-2.678,2.417C-2.678,3.895 -1.479,5.094 0,5.094" style="fill:rgb(169,0,68);fill-rule:nonzero;"/>
            </g>
            <g transform="matrix(4.16667,0,0,4.16667,495.817,1144.18)">
                <path d="M0,-2.511C-1.04,-2.511 -1.505,-2.355 -2.095,-2.157C-2.774,-1.928 -3.621,-1.646 -5.16,-1.646C-6.7,-1.646 -7.545,-1.928 -8.227,-2.157C-8.794,-2.348 -9.247,-2.5 -10.212,-2.511L-10.212,-0.865C-8.741,-0.851 -7.918,-0.577 -7.255,-0.354C-6.667,-0.157 -6.201,0 -5.16,0C-4.12,0 -3.654,-0.157 -3.066,-0.354C-2.385,-0.582 -1.54,-0.866 0,-0.866C1.54,-0.866 2.386,-0.582 3.065,-0.354C3.634,-0.163 4.088,-0.01 5.053,-0.001L5.053,-1.646C3.582,-1.659 2.759,-1.935 2.096,-2.157C1.506,-2.355 1.04,-2.511 0,-2.511" style="fill:rgb(169,0,68);fill-rule:nonzero;"/>
            </g>
            <g transform="matrix(4.16667,0,0,4.16667,495.817,1124.61)">
                <path d="M0,-2.511C-1.04,-2.511 -1.505,-2.355 -2.095,-2.158C-2.774,-1.929 -3.621,-1.646 -5.16,-1.646C-6.7,-1.646 -7.545,-1.929 -8.227,-2.158C-8.794,-2.348 -9.247,-2.499 -10.212,-2.511L-10.212,-0.865C-8.741,-0.851 -7.918,-0.576 -7.255,-0.353C-6.665,-0.157 -6.201,0 -5.16,0C-4.12,0 -3.654,-0.157 -3.064,-0.353C-2.385,-0.582 -1.54,-0.865 0,-0.865C1.54,-0.865 2.386,-0.582 3.065,-0.353C3.634,-0.163 4.088,-0.011 5.053,-0.001L5.053,-1.646C3.582,-1.659 2.759,-1.935 2.096,-2.158C1.506,-2.355 1.04,-2.511 0,-2.511" style="fill:rgb(169,0,68);fill-rule:nonzero;"/>
            </g>
            <g transform="matrix(4.16667,0,0,4.16667,474.316,1097.1)">
                <path d="M0,1.902C1.041,1.902 1.506,1.746 2.095,1.549C2.774,1.32 3.622,1.037 5.16,1.037C6.7,1.037 7.546,1.32 8.227,1.549C8.794,1.739 9.247,1.892 10.213,1.902L10.213,0L-5.053,0L-5.053,1.037C-3.581,1.05 -2.759,1.326 -2.096,1.549C-1.506,1.746 -1.04,1.902 0,1.902" style="fill:rgb(169,0,68);fill-rule:nonzero;"/>
            </g>
            <g transform="matrix(4.16667,0,0,4.16667,495.817,1160.69)">
                <path d="M0,-1.902C-1.04,-1.902 -1.505,-1.746 -2.095,-1.549C-2.774,-1.32 -3.621,-1.037 -5.16,-1.037C-6.7,-1.037 -7.546,-1.32 -8.227,-1.549C-8.794,-1.739 -9.247,-1.892 -10.213,-1.901L-10.213,0L5.053,0L5.053,-1.037C3.581,-1.05 2.759,-1.326 2.096,-1.549C1.506,-1.746 1.04,-1.902 0,-1.902" style="fill:rgb(169,0,68);fill-rule:nonzero;"/>
            </g>
        </g>
        <g transform="matrix(1.16724,0,0,1.16724,-334.506,-56.8834)">
            <g transform="matrix(2.26598,-0.000566291,0.000566291,2.26598,2304.39,927.546)">
                <path d="M0,9.998C-1.018,8.987 -1.528,7.539 -1.528,5.657L-1.528,-1.519L1.438,-1.519L1.438,5.548C1.438,7.844 2.389,8.993 4.293,8.993C5.221,8.993 5.931,8.714 6.418,8.158C6.903,7.603 7.15,6.733 7.15,5.548L7.15,-1.519L10.082,-1.519L10.082,5.657C10.082,7.539 9.568,8.987 8.55,9.998C7.532,11.01 6.106,11.517 4.276,11.517C2.446,11.517 1.018,11.01 0,9.998" style="fill:rgb(88,89,91);fill-rule:nonzero;"/>
            </g>
            <g transform="matrix(2.26598,-0.000566291,0.000566291,2.26598,2360.51,953.134)">
                <path d="M0,-12.817L0,0L-2.434,0L-8.823,-7.782L-8.823,0L-11.752,0L-11.752,-12.817L-9.299,-12.817L-2.929,-5.037L-2.929,-12.817L0,-12.817Z" style="fill:rgb(88,89,91);fill-rule:nonzero;"/>
            </g>
            <g transform="matrix(2.26598,-0.000566291,0.000566291,2.26598,926.431,-647.969)">
                <rect x="635.736" y="693.922" width="2.967" height="12.818" style="fill:rgb(88,89,91);"/>
            </g>
            <g transform="matrix(2.26598,-0.000566291,0.000566291,2.26598,2393.86,929.602)">
                <path d="M0,7.946C1.281,7.946 2.306,7.59 3.066,6.877C3.827,6.161 4.213,5.194 4.213,3.974C4.213,2.751 3.827,1.784 3.066,1.071C2.306,0.356 1.281,-0.001 0,-0.001L-2.71,-0.001L-2.71,7.946L0,7.946ZM-5.677,-2.434L0.145,-2.434C1.538,-2.434 2.765,-2.168 3.834,-1.638C4.903,-1.108 5.731,-0.361 6.325,0.603C6.916,1.57 7.212,2.69 7.212,3.974C7.212,5.256 6.916,6.376 6.325,7.342C5.731,8.305 4.903,9.053 3.834,9.583C2.765,10.116 1.538,10.38 0.145,10.38L-5.677,10.38L-5.677,-2.434Z" style="fill:rgb(88,89,91);fill-rule:nonzero;"/>
            </g>
            <g transform="matrix(2.26598,-0.000566291,0.000566291,2.26598,2431.87,935.404)">
                <path d="M0,2.818L-2.032,-2.088L-4.068,2.818L0,2.818ZM0.931,5.069L-5.016,5.069L-6.152,7.818L-9.192,7.818L-3.48,-5L-0.549,-5L5.179,7.818L2.071,7.818L0.931,5.069Z" style="fill:rgb(88,89,91);fill-rule:nonzero;"/>
            </g>
            <g transform="matrix(2.26598,-0.000566291,0.000566291,2.26598,2459.5,929.586)">
                <path d="M0,7.946C1.28,7.946 2.305,7.59 3.065,6.877C3.827,6.161 4.212,5.194 4.212,3.974C4.212,2.751 3.827,1.784 3.065,1.071C2.305,0.356 1.28,-0.001 0,-0.001L-2.71,-0.001L-2.71,7.946L0,7.946ZM-5.677,-2.434L0.145,-2.434C1.537,-2.434 2.764,-2.168 3.833,-1.638C4.902,-1.108 5.73,-0.361 6.325,0.603C6.916,1.57 7.211,2.69 7.211,3.974C7.211,5.256 6.916,6.376 6.325,7.342C5.73,8.305 4.902,9.053 3.833,9.583C2.764,10.116 1.537,10.38 0.145,10.38L-5.677,10.38L-5.677,-2.434Z" style="fill:rgb(88,89,91);fill-rule:nonzero;"/>
            </g>
            <g transform="matrix(2.26598,-0.000566291,0.000566291,2.26598,2505.5,929.575)">
                <path d="M0,7.946C1.28,7.946 2.305,7.59 3.065,6.877C3.827,6.161 4.212,5.194 4.212,3.974C4.212,2.751 3.827,1.784 3.065,1.071C2.305,0.356 1.28,-0.001 0,-0.001L-2.71,-0.001L-2.71,7.946L0,7.946ZM-5.677,-2.434L0.145,-2.434C1.537,-2.434 2.764,-2.168 3.833,-1.638C4.902,-1.108 5.73,-0.361 6.325,0.603C6.916,1.57 7.211,2.69 7.211,3.974C7.211,5.256 6.916,6.376 6.325,7.342C5.73,8.305 4.902,9.053 3.833,9.583C2.764,10.116 1.537,10.38 0.145,10.38L-5.677,10.38L-5.677,-2.434Z" style="fill:rgb(88,89,91);fill-rule:nonzero;"/>
            </g>
            <g transform="matrix(2.26598,-0.000566291,0.000566291,2.26598,2549.39,929.438)">
                <path d="M0,8.056L0,10.435L-9.922,10.435L-9.922,-2.379L-0.235,-2.379L-0.235,0L-6.975,0L-6.975,2.781L-1.024,2.781L-1.024,5.09L-6.975,5.09L-6.975,8.056L0,8.056Z" style="fill:rgb(88,89,91);fill-rule:nonzero;"/>
            </g>
            <g transform="matrix(2.26598,-0.000566291,0.000566291,2.26598,926.456,-548.397)">
                <rect x="606.518" y="671.951" width="2.967" height="12.818" style="fill:rgb(88,89,91);"/>
            </g>
            <g transform="matrix(2.26598,-0.000566291,0.000566291,2.26598,2341.44,1002.92)">
                <path d="M0,-12.817L0,0L-2.434,0L-8.823,-7.782L-8.823,0L-11.751,0L-11.751,-12.817L-9.298,-12.817L-2.928,-5.037L-2.928,-12.817L0,-12.817Z" style="fill:rgb(88,89,91);fill-rule:nonzero;"/>
            </g>
            <g transform="matrix(2.26598,-0.000566291,0.000566291,2.26598,2355.05,997.528)">
                <path d="M0,-8.057L0,-4.669L5.931,-4.669L5.931,-2.29L0,-2.29L0,2.379L-2.967,2.379L-2.967,-10.436L6.721,-10.436L6.721,-8.057L0,-8.057Z" style="fill:rgb(88,89,91);fill-rule:nonzero;"/>
            </g>
            <g transform="matrix(2.26598,-0.000566291,0.000566291,2.26598,2393.26,980.277)">
                <path d="M0,7.16C0.61,6.813 1.092,6.325 1.436,5.702C1.785,5.083 1.959,4.373 1.959,3.58C1.959,2.787 1.785,2.077 1.436,1.458C1.092,0.835 0.61,0.347 0,0.003C-0.61,-0.347 -1.294,-0.521 -2.052,-0.521C-2.807,-0.521 -3.49,-0.347 -4.1,0.003C-4.713,0.347 -5.188,0.835 -5.538,1.458C-5.885,2.077 -6.062,2.787 -6.062,3.58C-6.062,4.373 -5.885,5.083 -5.538,5.702C-5.188,6.325 -4.713,6.813 -4.1,7.16C-3.49,7.507 -2.807,7.683 -2.052,7.683C-1.294,7.683 -0.61,7.507 0,7.16M-5.647,9.347C-6.717,8.771 -7.555,7.982 -8.155,6.977C-8.762,5.969 -9.061,4.839 -9.061,3.58C-9.061,2.324 -8.762,1.191 -8.155,0.182C-7.555,-0.822 -6.717,-1.612 -5.647,-2.187C-4.582,-2.761 -3.381,-3.047 -2.052,-3.047C-0.723,-3.047 0.476,-2.761 1.538,-2.187C2.601,-1.612 3.436,-0.822 4.049,0.182C4.655,1.191 4.964,2.324 4.964,3.58C4.964,4.839 4.655,5.969 4.049,6.977C3.436,7.982 2.601,8.771 1.538,9.347C0.476,9.922 -0.723,10.207 -2.052,10.207C-3.381,10.207 -4.582,9.922 -5.647,9.347" style="fill:rgb(88,89,91);fill-rule:nonzero;"/>
            </g>
            <g transform="matrix(2.26598,-0.000566291,0.000566291,2.26598,2426.36,996.115)">
                <path d="M0,-6.827C-0.462,-7.212 -1.14,-7.404 -2.032,-7.404L-4.447,-7.404L-4.447,-2.938L-2.032,-2.938C-1.14,-2.938 -0.462,-3.131 0,-3.522C0.466,-3.914 0.697,-4.464 0.697,-5.17C0.697,-5.889 0.466,-6.441 0,-6.827M0.751,2.995L-1.718,-0.575L-4.447,-0.575L-4.447,2.995L-7.414,2.995L-7.414,-9.822L-1.865,-9.822C-0.732,-9.822 0.254,-9.633 1.092,-9.254C1.93,-8.875 2.572,-8.339 3.021,-7.642C3.475,-6.945 3.699,-6.123 3.699,-5.17C3.699,-4.22 3.471,-3.397 3.012,-2.707C2.556,-2.016 1.907,-1.49 1.062,-1.124L3.939,2.995L0.751,2.995Z" style="fill:rgb(88,89,91);fill-rule:nonzero;"/>
            </g>
            <g transform="matrix(2.26598,-0.000566291,0.000566291,2.26598,2466.47,973.849)">
                <path d="M0,12.817L-0.02,5.128L-3.792,11.463L-5.128,11.463L-8.881,5.291L-8.881,12.817L-11.661,12.817L-11.661,0L-9.208,0L-4.411,7.965L0.312,0L2.745,0L2.784,12.817L0,12.817Z" style="fill:rgb(88,89,91);fill-rule:nonzero;"/>
            </g>
            <g transform="matrix(2.26598,-0.000566291,0.000566291,2.26598,2493.95,1002.89)">
                <path d="M0,-16.497L3.076,-16.497L-0.237,-13.861L-2.473,-13.861L0,-16.497ZM1.21,-4.999L-0.822,-9.905L-2.857,-4.999L1.21,-4.999ZM2.142,-2.748L-3.808,-2.748L-4.941,0L-7.982,0L-2.271,-12.817L0.661,-12.817L6.39,0L3.278,0L2.142,-2.748Z" style="fill:rgb(88,89,91);fill-rule:nonzero;"/>
            </g>
            <g transform="matrix(2.26598,-0.000566291,0.000566291,2.26598,2516.02,997.404)">
                <path d="M0,-7.983L-4.101,-7.983L-4.101,-10.4L7.066,-10.4L7.066,-7.983L2.967,-7.983L2.967,2.417L0,2.417L0,-7.983Z" style="fill:rgb(88,89,91);fill-rule:nonzero;"/>
            </g>
            <g transform="matrix(2.26598,-0.000566291,0.000566291,2.26598,926.456,-548.397)">
                <rect x="709.979" y="671.951" width="2.967" height="12.818" style="fill:rgb(88,89,91);"/>
            </g>
            <g transform="matrix(2.26598,-0.000566291,0.000566291,2.26598,2555.12,975.264)">
                <path d="M0,11.551C-1.057,10.983 -1.888,10.197 -2.488,9.192C-3.096,8.183 -3.397,7.043 -3.397,5.776C-3.397,4.507 -3.096,3.367 -2.488,2.362C-1.888,1.354 -1.057,0.568 0,-0.001C1.056,-0.569 2.241,-0.852 3.561,-0.852C4.672,-0.852 5.677,-0.656 6.572,-0.267C7.468,0.124 8.226,0.686 8.833,1.418L6.929,3.174C6.064,2.176 4.989,1.675 3.705,1.675C2.912,1.675 2.206,1.848 1.583,2.196C0.96,2.542 0.475,3.03 0.128,3.653C-0.219,4.273 -0.396,4.982 -0.396,5.776C-0.396,6.569 -0.219,7.275 0.128,7.898C0.475,8.521 0.96,9.008 1.583,9.355C2.206,9.701 2.912,9.878 3.705,9.878C4.989,9.878 6.064,9.371 6.929,8.357L8.833,10.113C8.226,10.858 7.465,11.426 6.562,11.818C5.66,12.209 4.652,12.403 3.545,12.403C2.234,12.403 1.056,12.119 0,11.551" style="fill:rgb(88,89,91);fill-rule:nonzero;"/>
            </g>
            <g transform="matrix(2.26598,-0.000566291,0.000566291,2.26598,2596.08,985.148)">
                <path d="M0,2.818L-2.032,-2.087L-4.067,2.818L0,2.818ZM0.932,5.069L-5.015,5.069L-6.151,7.818L-9.192,7.818L-3.48,-5L-0.549,-5L5.18,7.818L2.071,7.818L0.932,5.069Z" style="fill:rgb(88,89,91);fill-rule:nonzero;"/>
            </g>
            <g transform="matrix(2.26598,-0.000566291,0.000566291,2.26598,2315.15,1033.96)">
                <path d="M0,3.737L0,8.277L-2.967,8.277L-2.967,3.699L-7.931,-4.54L-4.778,-4.54L-1.355,1.156L2.067,-4.54L4.979,-4.54L0,3.737Z" style="fill:rgb(88,89,91);fill-rule:nonzero;"/>
            </g>
            <g transform="matrix(2.26598,-0.000566291,0.000566291,2.26598,2363.48,1029.06)">
                <path d="M0,8.055L0,10.435L-9.921,10.435L-9.921,-2.38L-0.234,-2.38L-0.234,-0.001L-6.974,-0.001L-6.974,2.781L-1.024,2.781L-1.024,5.089L-6.974,5.089L-6.974,8.055L0,8.055Z" style="fill:rgb(88,89,91);fill-rule:nonzero;"/>
            </g>
            <g transform="matrix(2.26598,-0.000566291,0.000566291,2.26598,2371.71,1024.09)">
                <path d="M0,12.433C-0.944,12.16 -1.705,11.8 -2.28,11.364L-1.271,9.128C-0.723,9.53 -0.068,9.855 0.687,10.098C1.444,10.342 2.202,10.464 2.957,10.464C3.801,10.464 4.424,10.339 4.825,10.092C5.23,9.838 5.429,9.508 5.429,9.09C5.429,8.788 5.311,8.535 5.072,8.332C4.835,8.13 4.53,7.97 4.157,7.848C3.785,7.726 3.281,7.591 2.646,7.443C1.673,7.212 0.87,6.981 0.247,6.746C-0.373,6.515 -0.909,6.146 -1.355,5.632C-1.802,5.119 -2.023,4.435 -2.023,3.58C-2.023,2.835 -1.821,2.162 -1.416,1.558C-1.015,0.954 -0.408,0.476 0.404,0.122C1.217,-0.234 2.205,-0.411 3.381,-0.411C4.199,-0.411 4.999,-0.314 5.779,-0.119C6.56,0.078 7.243,0.361 7.827,0.726L6.912,2.977C5.728,2.306 4.543,1.969 3.361,1.969C2.529,1.969 1.92,2.104 1.521,2.373C1.127,2.643 0.925,2.996 0.925,3.436C0.925,3.872 1.152,4.201 1.611,4.412C2.07,4.627 2.768,4.839 3.708,5.044C4.685,5.276 5.483,5.51 6.106,5.742C6.729,5.973 7.266,6.342 7.709,6.839C8.155,7.34 8.377,8.018 8.377,8.872C8.377,9.604 8.174,10.272 7.764,10.879C7.355,11.483 6.742,11.96 5.924,12.314C5.107,12.667 4.109,12.844 2.94,12.844C1.926,12.844 0.946,12.709 0,12.433" style="fill:rgb(88,89,91);fill-rule:nonzero;"/>
            </g>
            <g transform="matrix(2.26598,-0.000566291,0.000566291,2.26598,2400.9,1047.22)">
                <path d="M0,-7.981L-4.1,-7.981L-4.1,-10.399L7.067,-10.399L7.067,-7.981L2.967,-7.981L2.967,2.418L0,2.418L0,-7.981Z" style="fill:rgb(88,89,91);fill-rule:nonzero;"/>
            </g>
            <g transform="matrix(2.26598,-0.000566291,0.000566291,2.26598,2436.08,1034.97)">
                <path d="M0,2.819L-2.032,-2.087L-4.068,2.819L0,2.819ZM0.932,5.07L-5.016,5.07L-6.151,7.818L-9.192,7.818L-3.48,-4.999L-0.549,-4.999L5.179,7.818L2.071,7.818L0.932,5.07Z" style="fill:rgb(88,89,91);fill-rule:nonzero;"/>
            </g>
            <g transform="matrix(2.26598,-0.000566291,0.000566291,2.26598,2463.72,1029.15)">
                <path d="M0,7.947C1.281,7.947 2.306,7.591 3.066,6.878C3.827,6.162 4.213,5.195 4.213,3.975C4.213,2.752 3.827,1.786 3.066,1.073C2.306,0.357 1.281,0.001 0,0.001L-2.71,0.001L-2.71,7.947L0,7.947ZM-5.677,-2.434L0.145,-2.434C1.538,-2.434 2.765,-2.167 3.834,-1.637C4.903,-1.108 5.731,-0.36 6.325,0.604C6.916,1.57 7.211,2.691 7.211,3.975C7.211,5.257 6.916,6.377 6.325,7.343C5.731,8.306 4.903,9.054 3.834,9.585C2.765,10.118 1.538,10.381 0.145,10.381L-5.677,10.381L-5.677,-2.434Z" style="fill:rgb(88,89,91);fill-rule:nonzero;"/>
            </g>
            <g transform="matrix(2.26598,-0.000566291,0.000566291,2.26598,926.478,-457.162)">
                <path d="M687.681,653.66L690.648,653.66L690.648,666.477L687.681,666.477L687.681,653.66ZM689.97,649.98L693.046,649.98L689.731,652.617L687.497,652.617L689.97,649.98Z" style="fill:rgb(88,89,91);fill-rule:nonzero;"/>
            </g>
            <g transform="matrix(2.26598,-0.000566291,0.000566291,2.26598,2501.6,1024.06)">
                <path d="M0,12.433C-0.944,12.16 -1.705,11.8 -2.279,11.364L-1.271,9.128C-0.723,9.53 -0.067,9.855 0.687,10.098C1.445,10.342 2.202,10.464 2.957,10.464C3.802,10.464 4.425,10.339 4.826,10.092C5.23,9.838 5.43,9.508 5.43,9.09C5.43,8.788 5.311,8.535 5.073,8.332C4.836,8.13 4.53,7.97 4.158,7.848C3.785,7.726 3.281,7.591 2.646,7.443C1.673,7.212 0.87,6.981 0.247,6.746C-0.372,6.515 -0.908,6.146 -1.354,5.632C-1.801,5.119 -2.022,4.435 -2.022,3.58C-2.022,2.835 -1.82,2.162 -1.416,1.558C-1.015,0.954 -0.408,0.476 0.404,0.122C1.217,-0.234 2.206,-0.411 3.381,-0.411C4.2,-0.411 4.999,-0.314 5.779,-0.119C6.56,0.078 7.243,0.361 7.828,0.726L6.913,2.977C5.729,2.306 4.543,1.969 3.361,1.969C2.53,1.969 1.92,2.104 1.522,2.373C1.127,2.643 0.925,2.996 0.925,3.436C0.925,3.872 1.152,4.201 1.612,4.412C2.071,4.627 2.768,4.839 3.709,5.044C4.685,5.276 5.484,5.51 6.106,5.742C6.729,5.973 7.266,6.342 7.709,6.839C8.155,7.34 8.377,8.018 8.377,8.872C8.377,9.604 8.175,10.272 7.764,10.879C7.355,11.483 6.742,11.96 5.924,12.314C5.108,12.667 4.11,12.844 2.941,12.844C1.927,12.844 0.947,12.709 0,12.433" style="fill:rgb(88,89,91);fill-rule:nonzero;"/>
            </g>
            <g transform="matrix(2.26598,-0.000566291,0.000566291,2.26598,2530.8,1047.18)">
                <path d="M0,-7.981L-4.101,-7.981L-4.101,-10.399L7.066,-10.399L7.066,-7.981L2.967,-7.981L2.967,2.418L0,2.418L0,-7.981Z" style="fill:rgb(88,89,91);fill-rule:nonzero;"/>
            </g>
            <g transform="matrix(2.26598,-0.000566291,0.000566291,2.26598,926.481,-448.823)">
                <rect x="716.497" y="649.98" width="2.967" height="12.817" style="fill:rgb(88,89,91);"/>
            </g>
            <g transform="matrix(2.26598,-0.000566291,0.000566291,2.26598,2569.89,1025.04)">
                <path d="M0,11.552C-1.057,10.984 -1.888,10.198 -2.488,9.193C-3.096,8.184 -3.397,7.044 -3.397,5.776C-3.397,4.508 -3.096,3.368 -2.488,2.363C-1.888,1.355 -1.057,0.569 0,0C1.056,-0.568 2.241,-0.851 3.561,-0.851C4.672,-0.851 5.677,-0.655 6.572,-0.266C7.468,0.125 8.226,0.687 8.833,1.419L6.929,3.175C6.064,2.177 4.989,1.676 3.705,1.676C2.912,1.676 2.206,1.849 1.583,2.197C0.96,2.543 0.475,3.031 0.128,3.654C-0.219,4.274 -0.396,4.983 -0.396,5.776C-0.396,6.57 -0.219,7.276 0.128,7.899C0.475,8.522 0.96,9.009 1.583,9.356C2.206,9.702 2.912,9.879 3.705,9.879C4.989,9.879 6.064,9.372 6.929,8.358L8.833,10.114C8.226,10.859 7.465,11.427 6.562,11.819C5.66,12.21 4.652,12.403 3.545,12.403C2.234,12.403 1.056,12.12 0,11.552" style="fill:rgb(88,89,91);fill-rule:nonzero;"/>
            </g>
            <g transform="matrix(2.26598,-0.000566291,0.000566291,2.26598,2610.87,1034.93)">
                <path d="M0,2.819L-2.033,-2.087L-4.068,2.819L0,2.819ZM0.931,5.07L-5.016,5.07L-6.152,7.818L-9.192,7.818L-3.48,-4.999L-0.55,-4.999L5.179,7.818L2.07,7.818L0.931,5.07Z" style="fill:rgb(88,89,91);fill-rule:nonzero;"/>
            </g>
            <g transform="matrix(2.26598,-0.000566291,0.000566291,2.26598,2041.41,1056.13)">
                <path d="M0,-61.497C-5.227,-57.272 -8.57,-50.808 -8.57,-43.56C-8.57,-42.194 -8.507,-39.666 -8.656,-39.71C-8.656,-39.71 -8.57,-18.117 -8.57,-17.737C-8.57,-17.356 -8.601,-16.983 -8.656,-16.611C-9.199,-12.897 -12.392,-10.052 -16.255,-10.052C-20.504,-10.052 -23.944,-13.49 -23.944,-17.737L-23.944,-58.934C-23.944,-59.833 -24.1,-60.7 -24.384,-61.497C-25.437,-64.488 -28.285,-66.621 -31.632,-66.621C-34.979,-66.621 -37.826,-64.488 -38.877,-61.497C-39.164,-60.7 -39.321,-59.833 -39.321,-58.934L-39.321,-17.938C-39.321,-14.67 -38.635,-11.553 -37.406,-8.736C-33.858,-0.575 -25.719,5.124 -16.255,5.124C-6.794,5.124 1.344,-0.575 4.889,-8.736C6.119,-11.553 6.804,-14.67 6.804,-17.938C6.804,-19.301 6.686,-21.853 6.804,-21.815L6.804,-43.361C6.804,-47.601 10.241,-51.048 14.491,-51.048C14.803,-51.048 15.106,-51.029 15.409,-50.99C16.889,-58.592 20.743,-62.647 23.701,-64.703C20.878,-65.939 17.766,-66.621 14.491,-66.621C9,-66.621 3.956,-64.703 0,-61.497" style="fill:rgb(239,77,101);fill-rule:nonzero;"/>
            </g>
            <g transform="matrix(2.26598,-0.000566291,0.000566291,2.26598,926.455,-552.444)">
                <clipPath id="_clip1">
                    <path d="M491.863,648.504C486.635,652.729 483.292,659.193 483.292,666.442C483.292,667.807 483.356,670.334 483.206,670.291C483.206,670.291 483.292,691.885 483.292,692.265C483.292,692.646 483.261,693.018 483.206,693.391C482.663,697.104 479.47,699.949 475.608,699.949C471.359,699.949 467.918,696.512 467.918,692.265L467.918,651.067C467.918,650.168 467.762,649.302 467.479,648.504C466.425,645.513 463.577,643.38 460.23,643.38C456.884,643.38 454.036,645.513 452.985,648.504C452.698,649.302 452.541,650.168 452.541,651.067L452.541,692.063C452.541,695.331 453.227,698.448 454.456,701.266C458.004,709.427 466.143,715.125 475.608,715.125C485.068,715.125 493.206,709.427 496.75,701.266C497.982,698.448 498.666,695.331 498.666,692.063C498.666,690.7 498.548,688.148 498.666,688.186L498.666,666.641C498.666,662.4 502.104,658.953 506.353,658.953C506.665,658.953 506.969,658.973 507.271,659.011C508.751,651.409 512.606,647.354 515.563,645.298C512.74,644.062 509.628,643.38 506.353,643.38C500.863,643.38 495.818,645.298 491.863,648.504Z" clip-rule="nonzero"/>
                </clipPath>
                <g clip-path="url(#_clip1)">
                    <rect x="452.544" y="643.381" width="63.02" height="71.744" style="fill:rgb(153,36,79);"/>
                </g>
            </g>
            <g transform="matrix(0.000566291,2.26598,2.26598,-0.000566291,2109.04,854.832)">
                <path d="M7.684,-7.69C11.931,-7.69 15.374,-4.25 15.374,-0.005C15.374,4.244 11.931,7.684 7.684,7.684C3.44,7.684 0,4.244 0,-0.005C0,-4.25 3.44,-7.69 7.684,-7.69" style="fill:rgb(243,138,36);fill-rule:nonzero;"/>
            </g>
            <g transform="matrix(2.26598,-0.000566291,0.000566291,2.26598,926.398,-780.814)">
                <clipPath id="_clip2">
                    <path d="M514.04,729.641C514.04,733.887 517.48,737.331 521.725,737.331C525.974,737.331 529.414,733.887 529.414,729.641C529.414,725.397 525.974,721.957 521.725,721.957C517.48,721.957 514.04,725.397 514.04,729.641Z" clip-rule="nonzero"/>
                </clipPath>
                <g clip-path="url(#_clip2)">
                    <rect x="514.04" y="721.957" width="15.372" height="15.374" style="fill:rgb(243,138,36);"/>
                </g>
            </g>
            <g transform="matrix(2.26598,-0.000566291,0.000566291,2.26598,2084.88,1038.42)">
                <path d="M0,-41.628C1.818,-40.229 2.991,-38.027 2.991,-35.549L2.991,-10.127C2.991,-6.859 3.673,-3.742 4.903,-0.924C8.452,7.237 16.589,12.935 26.05,12.935C30.128,12.935 33.955,11.878 37.277,10.021C32.664,4.751 31.05,-0.125 30.619,-3.753C29.345,-2.806 27.766,-2.241 26.05,-2.241C22.185,-2.241 18.992,-5.086 18.448,-8.799C18.395,-9.171 18.365,-9.545 18.365,-9.925L18.365,-35.748C18.365,-42.997 15.021,-49.461 9.798,-53.686C9.42,-53.995 9.034,-54.284 8.634,-54.563C5.775,-52.753 1.75,-48.981 0,-41.628" style="fill:rgb(243,138,36);fill-rule:nonzero;"/>
            </g>
            <g transform="matrix(2.26598,-0.000566291,0.000566291,2.26598,926.457,-542.823)">
                <clipPath id="_clip3">
                    <path d="M511.049,656.316C512.867,657.715 514.04,659.916 514.04,662.395L514.04,687.817C514.04,691.085 514.722,694.202 515.952,697.02C519.501,705.181 527.638,710.879 537.098,710.879C541.176,710.879 545.004,709.822 548.326,707.965C543.712,702.695 542.099,697.819 541.668,694.191C540.393,695.138 538.815,695.703 537.098,695.703C533.233,695.703 530.041,692.858 529.497,689.145C529.444,688.772 529.414,688.4 529.414,688.019L529.414,662.196C529.414,654.947 526.07,648.483 520.846,644.258C520.469,643.949 520.083,643.66 519.682,643.381C516.824,645.191 512.798,648.962 511.049,656.316Z" clip-rule="nonzero"/>
                </clipPath>
                <g clip-path="url(#_clip3)">
                    <rect x="511.052" y="643.381" width="37.276" height="67.498" style="fill:rgb(243,138,36);"/>
                </g>
            </g>
            <g transform="matrix(2.26598,-0.000566291,0.000566291,2.26598,2180.76,1056.09)">
                <path d="M0,-61.497C-5.229,-57.272 -8.57,-50.808 -8.57,-43.56C-8.57,-42.194 -8.451,-39.644 -8.57,-39.68L-8.57,-17.737C-8.518,-11.208 -5.747,-5.339 -1.338,-1.173L-1.341,-1.167C-1.341,-1.167 0.731,1.043 5.736,3.013C8.479,4.185 11.636,5.124 14.491,5.124C27.228,5.124 37.553,-5.199 37.553,-17.938C37.553,-20.581 37.108,-23.12 36.286,-25.481C31.035,-18.934 24.747,-17.206 22.115,-16.765C21.695,-13.429 18.994,-10.882 15.862,-10.176C15.443,-10.129 8.27,-9.428 6.829,-16.384C6.785,-16.585 6.785,-17.132 6.785,-17.303C6.788,-19.985 6.805,-43.005 6.805,-43.361C6.805,-43.745 6.832,-44.117 6.89,-44.489C7.428,-48.198 10.626,-51.048 14.491,-51.048C18.738,-51.048 22.179,-47.601 22.179,-43.361C22.179,-43.226 22.173,-43.093 22.165,-42.961C22.159,-42.848 22.153,-42.734 22.143,-42.627C22.143,-42.605 22.14,-42.58 22.14,-42.558C22.126,-42.461 22.115,-42.362 22.099,-42.266C22.085,-42.183 22.076,-42.097 22.055,-42.017C22.043,-41.895 22.019,-41.783 21.988,-41.669C21.988,-41.647 21.982,-41.625 21.978,-41.601C21.972,-41.592 21.972,-41.579 21.966,-41.573C21.944,-41.476 21.922,-41.385 21.892,-41.289C21.892,-41.278 21.886,-41.272 21.886,-41.261C21.795,-40.947 21.687,-40.641 21.563,-40.342C21.505,-40.213 21.45,-40.08 21.381,-39.951C21.301,-39.79 21.221,-39.636 21.13,-39.481C21.05,-39.344 20.959,-39.2 20.868,-39.062C20.859,-39.06 20.852,-39.051 20.852,-39.04C20.755,-38.888 20.652,-38.756 20.537,-38.618C20.435,-38.477 20.318,-38.345 20.2,-38.215C20.194,-38.206 20.187,-38.196 20.187,-38.193C20.07,-38.069 19.957,-37.95 19.836,-37.84C19.723,-37.721 19.604,-37.616 19.478,-37.514C19.337,-37.387 19.187,-37.268 19.036,-37.161C18.893,-37.056 18.749,-36.954 18.6,-36.863C18.528,-36.819 18.453,-36.772 18.379,-36.733C18.305,-36.689 18.23,-36.65 18.155,-36.601C18.153,-36.601 18.153,-36.595 18.145,-36.595C17.993,-36.51 17.833,-36.438 17.667,-36.364C17.587,-36.325 17.513,-36.289 17.433,-36.259C17.355,-36.228 17.275,-36.193 17.195,-36.164C17.002,-36.087 16.81,-36.027 16.61,-35.972C16.588,-35.963 16.566,-35.958 16.547,-35.955C16.442,-35.925 16.34,-35.897 16.232,-35.875C16.21,-35.867 16.191,-35.862 16.169,-35.859C16.155,-35.859 16.142,-35.853 16.125,-35.845C15.998,-35.823 15.874,-35.8 15.744,-35.779C15.717,-35.77 15.694,-35.765 15.664,-35.765C15.611,-35.754 15.557,-35.748 15.504,-35.743L15.477,-35.743C15.347,-35.721 15.206,-35.706 15.076,-35.696C15.06,-35.696 15.043,-35.691 15.032,-35.696C14.855,-35.682 14.674,-35.673 14.491,-35.673C13.589,-35.673 12.726,-35.829 11.926,-36.113L11.926,-20.639C12.77,-20.545 13.625,-20.498 14.491,-20.498C16.825,-20.498 19.074,-20.846 21.199,-21.489C26.351,-23.056 30.737,-26.372 33.668,-30.748C36.123,-34.411 37.553,-38.822 37.553,-43.56C37.553,-56.296 27.228,-66.621 14.491,-66.621C9.001,-66.621 3.957,-64.703 0,-61.497" style="fill:rgb(243,198,42);fill-rule:nonzero;"/>
            </g>
            <g transform="matrix(2.26598,-0.000566291,0.000566291,2.26598,926.455,-552.444)">
                <clipPath id="_clip4">
                    <path d="M553.359,648.504C548.13,652.729 544.788,659.193 544.788,666.442C544.788,667.807 544.907,670.357 544.788,670.321L544.788,692.265C544.841,698.792 547.611,704.662 552.02,708.828L552.018,708.834C552.018,708.834 554.089,711.044 559.094,713.014C561.838,714.186 564.994,715.125 567.85,715.125C580.586,715.125 590.911,704.803 590.911,692.063C590.911,689.42 590.467,686.882 589.645,684.52C584.393,691.067 578.105,692.795 575.474,693.236C575.053,696.572 572.352,699.119 569.22,699.825C568.802,699.872 561.628,700.573 560.187,693.617C560.144,693.416 560.144,692.869 560.144,692.698C560.146,690.017 560.163,666.996 560.163,666.641C560.163,666.257 560.191,665.885 560.248,665.512C560.786,661.803 563.984,658.953 567.85,658.953C572.097,658.953 575.537,662.4 575.537,666.641C575.537,666.776 575.531,666.908 575.523,667.04C575.518,667.154 575.511,667.267 575.5,667.374C575.5,667.396 575.498,667.421 575.498,667.443C575.484,667.54 575.474,667.639 575.457,667.735C575.443,667.819 575.435,667.904 575.413,667.985C575.401,668.106 575.377,668.219 575.347,668.332C575.347,668.354 575.34,668.376 575.336,668.4C575.33,668.409 575.33,668.423 575.324,668.428C575.302,668.525 575.28,668.616 575.25,668.713C575.25,668.724 575.244,668.729 575.244,668.74C575.153,669.055 575.046,669.361 574.922,669.659C574.863,669.788 574.808,669.921 574.739,670.051C574.659,670.211 574.579,670.365 574.488,670.52C574.408,670.658 574.317,670.801 574.226,670.939C574.218,670.942 574.21,670.95 574.21,670.961C574.114,671.113 574.011,671.245 573.896,671.384C573.793,671.524 573.677,671.657 573.558,671.786C573.553,671.795 573.545,671.805 573.545,671.809C573.429,671.933 573.315,672.051 573.195,672.162C573.081,672.28 572.962,672.385 572.836,672.487C572.695,672.614 572.546,672.733 572.395,672.84C572.251,672.945 572.107,673.047 571.958,673.138C571.887,673.182 571.811,673.229 571.738,673.268C571.663,673.312 571.589,673.351 571.513,673.4C571.512,673.4 571.512,673.406 571.503,673.406C571.352,673.491 571.191,673.564 571.026,673.638C570.946,673.676 570.871,673.712 570.791,673.742C570.713,673.773 570.633,673.808 570.553,673.836C570.361,673.914 570.168,673.974 569.969,674.029C569.947,674.038 569.925,674.042 569.905,674.046C569.801,674.076 569.698,674.105 569.591,674.126C569.569,674.134 569.55,674.14 569.527,674.142C569.514,674.142 569.5,674.149 569.483,674.156C569.356,674.178 569.232,674.201 569.102,674.222C569.075,674.232 569.053,674.236 569.022,674.236C568.97,674.247 568.915,674.253 568.862,674.259L568.835,674.259C568.705,674.28 568.564,674.295 568.435,674.305C568.417,674.305 568.401,674.311 568.391,674.305C568.214,674.319 568.032,674.328 567.85,674.328C566.947,674.328 566.084,674.173 565.284,673.889L565.284,689.362C566.128,689.456 566.983,689.503 567.85,689.503C570.183,689.503 572.432,689.155 574.557,688.513C579.709,686.945 584.095,683.628 587.026,679.253C589.481,675.591 590.911,671.179 590.911,666.442C590.911,653.705 580.586,643.38 567.85,643.38C562.36,643.38 557.315,645.298 553.359,648.504Z" clip-rule="nonzero"/>
                </clipPath>
                <g clip-path="url(#_clip4)">
                    <rect x="544.788" y="643.381" width="46.123" height="71.744" style="fill:rgb(243,198,42);"/>
                </g>
            </g>
        </g>
    </g>
</svg>
