<?xml version="1.0" encoding="UTF-8"?>
<!DOCTYPE svg PUBLIC "-//W3C//DTD SVG 1.1//EN" "http://www.w3.org/Graphics/SVG/1.1/DTD/svg11.dtd">
<!-- Creator: CorelDRAW -->
<svg xmlns="http://www.w3.org/2000/svg" xml:space="preserve" width="33.0728mm" height="33.0728mm" version="1.1" style="shape-rendering:geometricPrecision; text-rendering:geometricPrecision; image-rendering:optimizeQuality; fill-rule:evenodd; clip-rule:evenodd"
viewBox="0 0 3307.28 3307.28"
 xmlns:xlink="http://www.w3.org/1999/xlink"
 xmlns:xodm="http://www.corel.com/coreldraw/odm/2003">
 <defs>
  <style type="text/css">
   <![CDATA[
    .str0 {stroke:#E63133;stroke-width:6.35;stroke-miterlimit:22.9256}
    .fil0 {fill:none;fill-rule:nonzero}
    .fil5 {fill:#009AD5;fill-rule:nonzero}
    .fil2 {fill:#00AEA6;fill-rule:nonzero}
    .fil3 {fill:#5B79B5;fill-rule:nonzero}
    .fil4 {fill:#5CB139;fill-rule:nonzero}
    .fil6 {fill:#904290;fill-rule:nonzero}
    .fil9 {fill:#AB0541;fill-rule:nonzero}
    .fil1 {fill:#EA4E64;fill-rule:nonzero}
    .fil8 {fill:#F1882D;fill-rule:nonzero}
    .fil7 {fill:#F8C650;fill-rule:nonzero}
   ]]>
  </style>
 </defs>
 <g id="Capa_x0020_1">
  <metadata id="CorelCorpID_0Corel-Layer"/>
  <path class="fil0 str0" d="M393.95 1136.61c0,8.72 -4.37,13.09 -13.09,13.09 -8.72,0 -13.08,-4.37 -13.08,-13.09 0,-8.72 4.36,-13.09 13.08,-13.09l0.02 0.02c8.72,-4.37 13.07,4.35 13.07,13.07 0,-4.35 0,-4.35 0,0z"/>
  <path class="fil1" d="M1061.12 90.08c0,0 -292.15,4.37 -475.3,109.02 -287.81,161.35 -466.58,466.57 -457.86,793.62l0 156.98 252.92 0c8.72,0 13.08,-4.37 13.08,-13.09 0,0 0,0 0,0l0 -61.04c0,-17.44 0,-30.53 0,-47.96 0,-135.18 43.61,-270.36 117.74,-383.73 100.29,-139.54 248.55,-239.83 414.25,-279.07 43.61,-8.71 87.21,-13.08 130.82,-13.08l4.35 -261.65z"/>
  <path class="fil2" d="M3184.71 1018.89c0,0 -4.37,-292.16 -109.02,-475.31 -161.35,-287.8 -466.57,-462.22 -793.62,-453.5l-156.98 0 0 252.91c0,8.72 4.37,13.09 13.09,13.09 0,0 0,0 0,0l109 0c135.18,0 270.35,43.61 383.72,117.74 139.55,100.28 239.83,248.55 279.07,414.24 8.72,43.61 13.09,87.22 13.09,130.83l261.65 0z"/>
  <path class="fil3" d="M2251.55 3146.82c0,0 292.15,-4.36 475.3,-109.02 287.81,-156.98 462.23,-466.57 457.86,-793.61l0 -156.98 -252.92 0.01c-8.72,0 -13.08,4.37 -13.08,13.09 0,0 0,0 0,0l0 65.41c0,17.44 0,30.52 0,47.96 0,135.18 -43.61,270.35 -117.74,383.72 -100.29,139.55 -248.55,239.83 -414.25,279.07 -43.6,8.72 -87.21,13.09 -130.82,13.09l-4.35 257.26z"/>
  <path class="fil4" d="M127.96 2213.66c0,0 4.37,292.16 109.02,475.31 156.98,287.8 466.58,466.57 793.62,457.85l156.96 0 0 -252.91c0,-8.72 -4.36,-13.09 -13.08,-13.09 0,0 0,0 0,0l-109.01 0.02c-318.32,0 -593.03,-222.39 -662.8,-536.35 -8.72,-43.61 -13.09,-87.22 -13.09,-130.83l-261.62 0z"/>
  <path class="fil5" d="M1191.93 90.08l0 497.11c0,47.96 -21.8,95.93 -56.69,126.46 -21.81,17.43 -47.96,30.52 -78.5,34.89 -13.09,4.36 -30.52,4.36 -43.61,8.71 -13.09,0 -21.8,4.37 -30.52,4.37 -39.24,8.72 -74.13,30.52 -104.65,56.7 -52.33,43.6 -82.85,109.02 -91.57,174.41 -4.37,91.57 -78.5,161.35 -170.07,156.98 0,0 0,0 0,0l-91.55 -0.01c-13.08,-274.72 47.96,-431.7 239.83,-571.23 78.5,-52.33 165.7,-82.85 261.63,-87.22 17.44,0 30.53,-17.43 30.53,-34.89l0 -370.65 135.17 0.02 0 4.35z"/>
  <path class="fil6" d="M3184.71 1154.06l-497.11 0c-47.96,0 -95.94,-21.8 -126.46,-56.69 -17.44,-21.8 -30.52,-47.96 -34.89,-78.5 -4.37,-13.08 -4.37,-30.52 -8.72,-43.61 0,-13.08 -4.37,-21.8 -8.72,-30.52 -30.52,-104.65 -122.09,-183.15 -231.11,-196.22 -91.56,-4.37 -161.34,-78.5 -156.98,-170.07 0,0 0,0 0,0l0 -91.56c274.72,-13.09 431.7,47.96 571.23,239.83 52.32,78.49 82.85,165.69 87.21,261.63 0,17.44 17.44,30.52 34.89,30.52l366.29 0.02 4.37 135.17z"/>
  <path class="fil7" d="M2120.72 3146.82l0 -497.11c0,-47.96 21.81,-95.93 56.7,-126.45 21.8,-17.44 47.96,-30.53 78.5,-34.89 13.08,-4.37 30.52,-4.37 43.6,-8.72 13.09,0 21.81,-4.37 30.53,-4.37 39.24,-8.72 74.13,-30.52 104.65,-56.69 52.33,-43.61 82.85,-109.02 91.57,-174.42 4.36,-91.57 78.49,-161.35 170.06,-156.98 0,0 0,0 0,0l91.57 0.03c13.08,274.72 -47.96,431.7 -239.83,571.23 -78.5,52.32 -165.7,82.85 -261.63,87.21 -17.44,0 -30.52,17.44 -30.52,34.89l0 366.29 -135.2 -0.02z"/>
  <path class="fil8" d="M127.96 2078.49l497.1 0c47.96,0 95.93,21.8 126.45,56.69 17.44,21.81 30.53,47.96 34.89,74.13 4.37,13.09 4.37,30.53 8.72,43.61 0,13.09 4.37,21.81 4.37,34.89 8.72,39.24 30.52,74.13 56.69,104.65 43.61,52.33 104.66,82.85 174.42,91.57 91.57,4.37 161.35,78.5 156.98,170.07 0,0 0,0 0,0l0 91.56c-274.72,13.09 -431.7,-47.96 -571.22,-239.82 -52.33,-78.5 -82.85,-165.7 -87.22,-261.64 0,-17.43 -17.44,-30.52 -34.89,-30.52l-366.29 -0.02 0 -135.17z"/>
  <rect class="fil9" x="925.94" y="1154.05" width="667.16" height="130.82"/>
  <path class="fil9" d="M925.93 1018.89l667.18 0 0 -135.18 -553.79 0c-61.05,0 -113.37,52.33 -113.37,113.37l-0.02 21.81z"/>
  <rect class="fil9" x="925.94" y="1420.05" width="667.16" height="130.82"/>
  <rect class="fil9" x="2783.53" y="1280.5" width="135.18" height="266"/>
  <polygon class="fil9" points="2517.53,1280.52 2517.53,1947.68 3184.71,1947.68 3184.71,1280.52 3053.88,1280.52 3053.88,1681.68 2652.71,1681.68 2652.71,1280.52 "/>
  <path class="fil9" d="M1893.98 1154.06l78.5 -130.82 17.44 -26.17 61.04 -104.66c0,0 4.37,-4.36 4.37,-4.36l-331.42 0.01 0 667.16 331.42 0c0,0 -4.37,0 -4.37,-4.36l-61.04 -104.66 -17.44 -26.17 -78.5 -135.18 -34.89 -65.41c0,-4.36 0,-4.36 0,-8.72l34.89 -56.66z"/>
  <path class="fil9" d="M2216.66 1284.87l-78.5 135.18 -17.44 26.17 -61.04 104.65c0,0 -4.37,4.37 -4.37,4.37l331.41 -0.02 0 -549.43c0,-65.42 -52.32,-113.38 -113.37,-113.38l-218.02 0.02c0,0 4.36,0 4.36,4.37l61.05 104.65 17.44 26.17 82.85 130.83 34.89 61.04c0,4.37 0,4.37 0,8.72l-39.26 56.66z"/>
  <path class="fil9" d="M1732.63 116.25l34.89 34.89 47.96 0c13.09,0 26.17,4.37 39.24,8.72 26.17,13.08 47.96,34.89 61.05,61.04 4.37,13.09 8.72,26.18 8.72,39.24l4.36 47.96 34.89 34.89c4.37,4.37 4.37,4.37 8.72,8.72 13.09,17.44 21.81,39.24 21.81,61.05l0 -327.05 -327.03 0.02c21.8,0 43.61,8.72 56.69,21.8 -0.02,4.35 4.35,4.35 8.7,8.72z"/>
  <path class="fil9" d="M1353.28 347.36l34.89 -34.89 -0.02 -52.33c0,-13.08 4.37,-26.17 8.72,-39.24 13.09,-26.17 34.89,-47.96 61.04,-61.04 13.09,-4.37 26.18,-8.72 39.25,-8.72l47.95 0 34.89 -34.89 8.72 -8.72c17.44,-13.08 39.24,-21.8 61.05,-21.8l-327.01 0 0 322.68c0,-21.81 8.71,-39.25 21.8,-56.7l8.72 -4.35z"/>
  <path class="fil9" d="M1989.92 430.21c0,21.8 -8.72,43.61 -21.81,61.04l-8.72 8.72 -34.89 34.89 -4.36 47.96c0,13.09 -4.37,26.17 -8.72,39.24 -13.09,26.17 -34.89,47.96 -61.05,61.05 -13.08,4.37 -26.17,8.72 -39.24,8.72l-47.96 4.36 -34.89 34.89c-4.37,4.37 -4.37,4.37 -8.72,8.72 -17.43,13.09 -39.24,21.81 -56.69,21.81l327.05 0 0 -331.4z"/>
  <path class="fil9" d="M1588.74 731.08c-4.37,-4.36 -4.37,-4.36 -8.72,-8.71l-34.89 -34.89 -47.96 -4.37c-13.08,0 -26.17,-4.37 -39.24,-8.72 -26.17,-13.09 -47.96,-34.89 -61.04,-61.05 -4.37,-13.08 -8.72,-26.17 -8.72,-39.24l0 -47.96 -34.89 -34.89 -8.72 -8.71c-13.09,-17.44 -21.8,-39.24 -21.8,-61.05l0 327.05 327.02 -0.02c-21.8,4.37 -43.6,-4.35 -61.04,-17.44z"/>
  <path class="fil9" d="M1588.74 421.49c0,34.89 30.52,65.41 65.41,65.41 34.89,0 65.41,-30.52 65.41,-65.41 0,-34.89 -30.52,-65.41 -65.41,-65.41l0 0c-34.89,0 -65.41,26.15 -65.41,65.41z"/>
  <polygon class="fil9" points="463.73,1786.33 328.55,1616.28 463.73,1450.57 337.27,1284.87 127.96,1284.87 127.96,1952.03 328.55,1952.03 "/>
  <polygon class="fil9" points="790.76,1952.03 790.76,1284.87 468.08,1284.87 603.25,1450.57 463.73,1616.28 603.25,1786.33 468.08,1952.03 "/>
  <polygon class="fil9" points="1854.74,1816.86 1723.91,1816.86 1723.91,1952.03 1989.92,1952.03 1989.92,1681.68 1854.74,1681.68 "/>
  <polygon class="fil9" points="2120.72,1681.68 2120.72,1952.03 2386.72,1952.03 2386.72,1816.86 2255.9,1816.86 2255.9,1681.68 "/>
  <rect class="fil9" x="1989.92" y="1952.03" width="130.82" height="130.82"/>
  <polygon class="fil9" points="1989.92,2348.86 1989.92,2082.86 1723.91,2082.86 1723.91,2218.03 1854.74,2218.03 1854.74,2348.86 "/>
  <polygon class="fil9" points="2255.9,2218.03 2386.72,2218.03 2386.72,2082.86 2120.72,2082.86 2120.72,2348.86 2255.9,2348.86 "/>
  <polygon class="fil9" points="1588.74,2052.33 1588.74,1681.68 925.93,1681.68 925.93,1904.07 1000.06,1904.07 1000.06,1978.2 1074.19,1978.2 1074.19,2052.33 1292.22,2052.33 1292.22,1904.07 1222.45,1904.07 1222.45,1978.2 1148.32,1978.2 1148.32,1834.31 1366.35,1834.31 1366.35,1904.07 1440.48,1904.07 1440.48,1978.2 1514.61,1978.2 1514.61,2052.33 "/>
  <path class="fil9" d="M1039.32 2348.86l549.42 0 0 -222.4 -662.81 0 0 104.66c0,65.41 52.33,117.74 113.39,117.74z"/>
  <path class="fil9" d="M1767.52 2863.39c-30.52,0 -61.04,4.36 -91.56,17.43 -87.22,30.53 -178.79,30.53 -266,0 -26.18,-8.72 -56.7,-17.43 -87.22,-17.43l0 69.76c43.61,0 87.22,8.72 130.82,21.8 30.53,13.09 61.05,17.44 91.57,17.44 30.52,0 61.05,-4.37 91.57,-17.44 87.21,-30.52 178.78,-30.52 266,0 26.17,8.72 56.69,17.44 87.22,17.44l0 -69.76c-43.61,0 -87.22,-8.72 -130.83,-21.81 -26.15,-13.07 -61.04,-17.43 -91.57,-17.43z"/>
  <path class="fil9" d="M1767.52 2662.82c-30.52,0 -61.04,4.36 -91.56,17.43 -87.22,30.52 -178.79,30.52 -266,0 -26.18,-8.72 -56.7,-17.43 -87.22,-17.43l0 69.76c43.61,0 87.22,8.72 130.82,21.8 30.53,13.09 61.05,17.44 91.57,17.44 30.52,0 61.05,-4.37 91.57,-17.44 87.21,-30.52 178.78,-30.52 266,0 26.17,8.72 56.69,17.44 87.22,13.09l0 -74.13c-43.61,0 -87.22,-8.72 -130.83,-21.81 -26.15,-8.71 -61.04,-13.08 -91.57,-8.71z"/>
  <path class="fil9" d="M1545.13 2562.51c30.52,0 61.05,-4.36 91.57,-17.43 87.21,-30.53 178.78,-30.53 266,0 26.17,8.71 56.69,17.43 87.22,17.43l0 -82.85 -667.16 0 0 43.61c43.6,0 87.21,8.72 130.82,21.81 30.51,13.08 61.03,17.43 91.55,17.43z"/>
  <path class="fil9" d="M1767.52 3063.97c-30.52,0 -61.04,4.37 -91.56,17.44 -87.22,30.52 -178.79,30.52 -266,0 -26.18,-8.72 -56.7,-17.44 -87.22,-13.08l0 82.84 667.18 0.02 0 -43.61c-43.61,0 -87.22,-8.72 -130.83,-21.8 -30.52,-17.44 -61.04,-21.81 -91.57,-21.81z"/>
 </g>
</svg>
